<?xml version="1.0" encoding="UTF-8"?>
<svg id="Ebene_2" data-name="Ebene 2" xmlns="http://www.w3.org/2000/svg" viewBox="0 0 172.56 171.58">
  <defs>
    <style>
      .cls-1 {
        fill: #ffe1bb;
      }

      .cls-1, .cls-2, .cls-3, .cls-4, .cls-5, .cls-6 {
        stroke-width: 0px;
      }

      .cls-2 {
        fill: #fff0d2;
      }

      .cls-3 {
        fill: #ffe100;
      }

      .cls-4 {
        fill: #000;
      }

      .cls-5 {
        fill: #5e449a;
      }

      .cls-6 {
        fill: #fff;
      }
    </style>
  </defs>
  <g id="Ebene_1-2" data-name="Ebene 1">
    <g>
      <g>
        <g>
          <path class="cls-6" d="M8.97,90.57c-.74.01-1.37-.12-1.89-.38-.51-.27-.93-.63-1.25-1.09-.32-.46-.56-1-.71-1.61s-.24-1.24-.25-1.9l-.02-1.53-4.8.08-.05-3.07,12.73-.21.08,4.67c.01.7-.05,1.35-.18,1.95-.13.61-.34,1.14-.64,1.59-.3.45-.69.81-1.19,1.08-.49.27-1.11.4-1.84.42ZM8.9,87.49c.3,0,.54-.07.73-.19.19-.12.34-.29.44-.49.1-.21.17-.44.2-.7.03-.26.05-.53.04-.8l-.02-1.35-3,.05.02,1.29c0,.29.03.56.09.83.05.26.14.5.26.71.12.21.28.37.48.49.2.12.45.17.75.17Z"/>
          <path class="cls-6" d="M1.39,100.51l4.58-3.5-.16-1.04-4.99.76-.45-2.97,12.58-1.93.73,4.8c.09.6.12,1.2.08,1.8-.04.59-.17,1.14-.39,1.64-.23.5-.56.93-1.01,1.27-.44.35-1.03.58-1.75.69-.85.13-1.61,0-2.26-.36-.65-.37-1.16-.95-1.54-1.73l-4.88,4.11-.54-3.55ZM10.1,99.06c.3-.05.53-.14.69-.3.16-.15.28-.34.35-.55.07-.21.1-.44.1-.69s-.02-.49-.05-.71l-.25-1.63-2.93.45.22,1.45c.04.25.1.5.18.76s.19.48.33.68c.14.2.32.35.54.46.22.11.49.13.81.09Z"/>
          <path class="cls-6" d="M2.72,106.93l12.16-3.78,2.54,8.17-2.47.77-1.66-5.34-2.3.72,1.57,5.05-2.35.73-1.57-5.05-2.52.79,1.76,5.65-2.51.78-2.64-8.48Z"/>
          <path class="cls-6" d="M18.78,123.5c-.67.32-1.29.47-1.87.44-.58-.03-1.11-.18-1.59-.47-.48-.29-.92-.67-1.32-1.16-.39-.49-.74-1.03-1.02-1.62l-.66-1.38-4.33,2.08-1.33-2.77,11.47-5.53,2.03,4.21c.3.63.52,1.24.66,1.85.14.6.17,1.18.09,1.71-.08.54-.29,1.03-.62,1.48-.34.45-.83.83-1.49,1.15ZM17.43,120.74c.27-.13.47-.29.59-.48.12-.19.19-.4.19-.63s-.03-.47-.11-.72-.18-.5-.3-.74l-.59-1.21-2.71,1.3.56,1.17c.13.26.27.5.42.71.16.22.34.39.54.53.2.14.41.22.64.24.23.02.48-.03.75-.16Z"/>
          <path class="cls-6" d="M16.79,136.38l1.51-2.22-2.77-4.08-2.59.63-1.88-2.77,13.53-2.72,1.68,2.47-7.57,11.52-1.92-2.83ZM22.59,128.32l-4.52,1.11,1.8,2.65,2.73-3.76Z"/>
          <path class="cls-6" d="M25.18,146.1l1.77-5.48-.72-.76-3.67,3.48-2.07-2.18,9.24-8.76,3.34,3.52c.42.44.78.92,1.09,1.43.31.51.51,1.03.61,1.57.1.54.07,1.08-.1,1.62-.17.54-.52,1.06-1.05,1.56-.63.59-1.31.92-2.06.99-.75.06-1.5-.12-2.25-.54l-1.67,6.16-2.47-2.61ZM31.5,139.94c.22-.21.35-.42.4-.64.05-.22.04-.44-.02-.65-.06-.21-.17-.42-.31-.63-.14-.2-.29-.39-.45-.56l-1.13-1.19-2.15,2.04,1.01,1.06c.17.18.37.36.58.52.21.16.43.29.66.37.23.08.46.11.71.07.24-.04.48-.17.72-.39Z"/>
          <path class="cls-6" d="M29.91,150.61l7.85-10.02,6.74,5.28-1.6,2.04-4.4-3.45-1.49,1.9,4.16,3.26-1.52,1.94-4.16-3.26-1.63,2.08,4.66,3.65-1.62,2.07-6.99-5.48Z"/>
          <path class="cls-6" d="M53.38,158.25c-.54.98-1.18,1.72-1.93,2.23-.75.51-1.55.83-2.4.96-.84.13-1.7.1-2.56-.09-.86-.19-1.68-.5-2.45-.92l-4.16-2.29,6.13-11.16,4.04,2.22c.79.43,1.51.95,2.18,1.56.67.61,1.18,1.28,1.55,2.04s.54,1.59.51,2.51c-.02.92-.33,1.9-.9,2.95ZM50.58,156.71c.35-.63.53-1.21.55-1.74.02-.53-.07-1.01-.27-1.44s-.5-.82-.88-1.17c-.38-.34-.8-.64-1.26-.9l-1.34-.74-3.58,6.53,1.28.7c.48.27.98.47,1.49.6.51.13,1,.17,1.48.11s.94-.25,1.37-.56c.44-.31.82-.77,1.16-1.39Z"/>
          <path class="cls-6" d="M64.13,158.08l-.74,2.52,4.73,1.38-.71,2.43-4.73-1.38-1.39,4.75-2.92-.85,3.57-12.22,8.04,2.35-.74,2.52-5.13-1.5Z"/>
          <path class="cls-6" d="M83.86,165.3c-.12,1-.4,1.89-.84,2.68-.44.79-1,1.44-1.68,1.96-.68.52-1.46.89-2.35,1.11-.88.22-1.82.28-2.81.16-.99-.12-1.88-.38-2.69-.8-.8-.42-1.48-.96-2.02-1.62-.54-.66-.94-1.42-1.19-2.29-.25-.87-.32-1.8-.2-2.8.12-1.01.4-1.91.84-2.68.44-.78,1-1.41,1.68-1.91.68-.5,1.46-.86,2.33-1.07.88-.21,1.81-.26,2.8-.15.99.11,1.89.38,2.7.78.81.41,1.49.93,2.03,1.58.55.64.95,1.39,1.2,2.25.25.86.32,1.79.2,2.8ZM80.59,164.92c.06-.55.03-1.07-.09-1.57-.12-.5-.32-.93-.6-1.31-.28-.38-.63-.69-1.05-.94-.42-.25-.9-.4-1.44-.47-.54-.06-1.04-.02-1.5.12-.46.15-.88.37-1.24.67-.36.3-.66.68-.88,1.14-.23.46-.37.96-.44,1.51-.07.57-.04,1.11.08,1.61.12.5.32.95.6,1.33.28.38.62.7,1.04.94.42.25.89.4,1.43.47.54.06,1.04.02,1.5-.12.46-.15.88-.37,1.24-.68s.66-.69.89-1.15.39-.98.45-1.55Z"/>
          <path class="cls-6" d="M93.67,171.17l-3.06-4.88-1.05.06.3,5.04-3,.18-.76-12.71,4.85-.29c.61-.04,1.21,0,1.8.08.59.09,1.12.27,1.6.54.48.27.87.64,1.18,1.12.3.47.48,1.08.52,1.81.05.86-.14,1.6-.57,2.21-.43.61-1.05,1.07-1.86,1.37l3.65,5.24-3.59.22ZM93.02,162.36c-.02-.3-.1-.54-.23-.72-.14-.18-.31-.31-.51-.4-.21-.09-.43-.15-.68-.17-.25-.02-.49-.02-.72-.01l-1.64.1.18,2.96,1.46-.09c.25-.02.51-.05.77-.11.26-.06.5-.15.71-.27.21-.12.38-.29.5-.5s.18-.48.16-.8Z"/>
          <path class="cls-6" d="M107.32,158.42l2.59,9.77-2.97.79-2.59-9.77-3.48.92-.67-2.54,9.92-2.63.67,2.54-3.48.92Z"/>
          <path class="cls-6" d="M123.52,163.05l-2.16-4.86-4.54,2.02,2.16,4.86-2.81,1.25-5.17-11.63,2.81-1.25,1.96,4.4,4.54-2.02-1.96-4.4,2.81-1.25,5.17,11.63-2.81,1.25Z"/>
          <path class="cls-6" d="M129.95,159.7l-6.97-10.65,7.16-4.69,1.42,2.17-4.68,3.06,1.32,2.02,4.42-2.89,1.35,2.06-4.42,2.89,1.45,2.21,4.95-3.24,1.44,2.2-7.43,4.86Z"/>
          <path class="cls-6" d="M139,140.14l1.84,1.87,3.52-3.45,1.78,1.81-3.52,3.45,3.46,3.53-2.17,2.13-8.92-9.09,5.98-5.87,1.84,1.87-3.81,3.74Z"/>
          <path class="cls-6" d="M156.26,131.09c.35.58.56,1.2.63,1.85.07.65,0,1.33-.2,2.02-.2.69-.55,1.37-1.05,2.03-.5.67-1.05,1.2-1.66,1.59-.6.39-1.22.63-1.86.74-.64.11-1.29.07-1.94-.1-.65-.17-1.29-.49-1.9-.95l-6.35-4.74,1.83-2.45,6.15,4.59c.28.21.57.37.87.48.3.11.61.17.92.17.31,0,.61-.08.91-.24s.58-.41.83-.76.42-.68.49-1.02c.07-.33.06-.65-.02-.95-.08-.3-.22-.58-.42-.83-.2-.25-.44-.48-.72-.69l-6.15-4.59,1.84-2.46,6.35,4.74c.61.46,1.1.98,1.45,1.56Z"/>
          <path class="cls-6" d="M154.31,119.43l8.93,4.73-1.44,2.72-8.93-4.73-1.68,3.18-2.32-1.23,4.8-9.08,2.32,1.23-1.68,3.18Z"/>
          <path class="cls-6" d="M166.92,107.58c.51.45.9.97,1.17,1.57.27.6.41,1.26.43,1.98.02.72-.11,1.47-.38,2.26-.27.79-.64,1.47-1.09,2.02s-.97.98-1.55,1.27c-.58.3-1.2.46-1.88.49s-1.38-.07-2.1-.32l-7.5-2.58.99-2.89,7.26,2.49c.33.11.65.18.98.19s.63-.02.92-.12c.29-.1.56-.26.79-.51.24-.24.42-.57.56-.98.14-.41.19-.78.16-1.12-.04-.34-.14-.63-.31-.9-.17-.26-.39-.48-.66-.66-.27-.18-.57-.33-.89-.44l-7.26-2.49,1-2.91,7.5,2.58c.73.25,1.34.6,1.86,1.05Z"/>
          <path class="cls-6" d="M171.66,97.4l-5.44,1.89-.17,1.03,4.98.83-.49,2.96-12.56-2.1.8-4.79c.1-.6.26-1.18.48-1.73.22-.55.52-1.03.89-1.44.37-.41.82-.7,1.35-.9.53-.19,1.16-.23,1.88-.11.85.14,1.53.49,2.03,1.05.5.56.81,1.27.92,2.12l5.92-2.38-.59,3.55ZM162.93,96.07c-.3-.05-.55-.03-.75.07-.2.09-.37.23-.51.41-.13.18-.24.39-.31.63-.08.24-.13.47-.17.69l-.27,1.62,2.93.49.24-1.44c.04-.25.06-.51.07-.78,0-.27-.03-.52-.1-.75-.07-.23-.19-.43-.37-.6-.18-.17-.43-.28-.75-.34Z"/>
          <path class="cls-6" d="M172.4,90.95l-12.73-.23.15-8.56,2.59.05-.1,5.59,2.41.04.09-5.29,2.46.04-.09,5.29,2.64.05.11-5.91,2.63.05-.16,8.88Z"/>
        </g>
        <g>
          <path class="cls-6" d="M13.51,47.16c-.42.09-.81.29-1.17.58-.36.3-.63.62-.8.98-.09.18-.16.38-.22.58s-.08.4-.06.6c.02.2.08.38.17.55.1.17.26.31.48.42.19.09.38.13.54.11s.34-.08.51-.19c.17-.11.35-.25.54-.43s.39-.38.6-.61c.32-.33.66-.66,1.01-1.01.36-.35.75-.63,1.18-.85.43-.22.89-.35,1.38-.39.49-.04,1.03.08,1.6.35.66.32,1.17.71,1.53,1.19.36.48.6.99.72,1.55.12.56.12,1.14.02,1.75-.1.6-.29,1.18-.56,1.75-.4.82-.92,1.55-1.58,2.17-.66.63-1.37,1.07-2.14,1.32l-.97-2.7c.48-.11.95-.34,1.4-.69.45-.35.79-.75,1.01-1.2.1-.21.17-.42.22-.63.05-.22.06-.42.04-.61-.03-.19-.1-.37-.22-.54-.12-.16-.29-.3-.52-.41-.22-.1-.43-.14-.63-.1-.2.04-.42.12-.64.26-.22.14-.45.33-.7.58-.25.25-.52.53-.82.85-.3.31-.61.6-.94.87-.33.27-.69.49-1.08.64-.39.15-.8.23-1.24.22-.44,0-.92-.14-1.44-.39-.64-.31-1.12-.7-1.45-1.18s-.54-1-.63-1.56-.07-1.14.05-1.73c.12-.59.31-1.16.57-1.7.31-.65.75-1.25,1.31-1.81.56-.56,1.2-.98,1.91-1.27l1.01,2.66Z"/>
          <path class="cls-6" d="M27.35,38c.37.57.6,1.18.69,1.83.09.65.05,1.33-.13,2.03-.18.7-.51,1.39-.98,2.07-.48.69-1.02,1.24-1.61,1.64-.59.41-1.2.67-1.84.8-.64.13-1.28.11-1.94-.04-.66-.15-1.3-.45-1.93-.89l-6.5-4.54,1.75-2.51,6.3,4.39c.29.2.58.35.89.46.31.1.61.15.92.14.31-.01.61-.1.9-.27s.56-.43.81-.78c.25-.35.4-.7.46-1.03.06-.33.04-.65-.05-.95-.09-.3-.24-.57-.45-.82-.21-.25-.45-.47-.74-.67l-6.3-4.39,1.76-2.52,6.5,4.54c.63.44,1.13.94,1.5,1.52Z"/>
          <path class="cls-6" d="M35.99,32.76l-5.54-1.57-.73.75,3.6,3.54-2.11,2.14-9.08-8.93,3.4-3.46c.43-.44.89-.82,1.39-1.14.5-.33,1.01-.55,1.55-.67.54-.12,1.08-.1,1.62.04.54.15,1.08.48,1.6.99.62.61.97,1.28,1.06,2.03.09.75-.06,1.5-.46,2.27l6.22,1.45-2.52,2.56ZM29.61,26.66c-.21-.21-.43-.33-.65-.38-.22-.04-.44-.03-.65.05-.21.07-.42.18-.62.33-.2.15-.38.31-.54.47l-1.15,1.17,2.12,2.08,1.03-1.04c.18-.18.34-.38.5-.6.16-.22.27-.44.35-.67.08-.23.09-.47.04-.71-.05-.24-.19-.48-.42-.7Z"/>
          <path class="cls-6" d="M44.37,25.87l-2.47,1.83-11.44-7.38,2.78-2.05,7.73,5.51.06-.04-3-9,2.73-2.02,3.61,13.16Z"/>
          <path class="cls-6" d="M49.15,22.77l-6.28-11.07,2.69-1.53,6.28,11.07-2.69,1.53Z"/>
          <path class="cls-6" d="M59.71,17.59l-2.84,1.18-9.35-9.89,3.19-1.33,6.2,7.2.07-.03-.77-9.46,3.14-1.31.37,13.64Z"/>
          <path class="cls-6" d="M64.98,15.64l-3.02-12.37,8.32-2.03.61,2.52-5.43,1.32.57,2.34,5.14-1.25.58,2.39-5.14,1.25.63,2.57,5.75-1.4.62,2.55-8.63,2.1Z"/>
          <path class="cls-6" d="M86.66,5.95c.08,1.11-.05,2.09-.41,2.92-.35.84-.85,1.54-1.49,2.11-.64.57-1.37,1.01-2.2,1.31-.83.31-1.68.49-2.56.56l-4.73.35-.93-12.7,4.59-.34c.9-.07,1.79-.03,2.68.12.89.15,1.69.44,2.41.87s1.31,1.04,1.79,1.83c.48.78.76,1.77.85,2.97ZM83.47,6.18c-.05-.72-.21-1.3-.48-1.76-.27-.46-.61-.81-1.01-1.06-.41-.25-.87-.42-1.37-.5-.51-.08-1.02-.11-1.55-.07l-1.52.11.54,7.42,1.45-.11c.55-.04,1.07-.14,1.57-.3.5-.16.93-.4,1.3-.72.37-.32.65-.72.85-1.22.2-.5.27-1.1.22-1.8Z"/>
          <path class="cls-6" d="M99.6,3.54l-1.43,10-3.04-.44,1.43-10-3.56-.51.37-2.6,10.16,1.45-.37,2.6-3.56-.51Z"/>
          <path class="cls-6" d="M110.45,16.67l1.6-5.08-4.73-1.49-1.6,5.08-2.93-.92,3.82-12.15,2.93.92-1.44,4.6,4.73,1.49,1.44-4.6,2.93.92-3.82,12.15-2.93-.92Z"/>
          <path class="cls-6" d="M115.46,18.56l5.77-11.35,7.63,3.88-1.17,2.31-4.98-2.53-1.09,2.15,4.71,2.4-1.12,2.2-4.71-2.4-1.2,2.36,5.27,2.68-1.19,2.34-7.92-4.03Z"/>
          <path class="cls-6" d="M141.53,25.16c-.47.58-.97.98-1.5,1.2-.54.22-1.08.31-1.64.26s-1.12-.21-1.69-.49-1.1-.62-1.62-1.03l-1.19-.96-3.02,3.73-2.39-1.93,8.01-9.9,3.64,2.94c.54.44,1,.9,1.39,1.39.38.49.65.99.81,1.51.16.52.18,1.05.07,1.6-.11.55-.4,1.11-.86,1.68ZM139.13,23.24c.19-.23.3-.46.32-.69.03-.22,0-.44-.09-.65-.09-.21-.22-.41-.4-.6s-.37-.37-.59-.55l-1.05-.85-1.89,2.33,1.01.81c.22.18.45.34.69.46.23.13.47.21.71.25.24.04.47.02.68-.06.22-.08.42-.23.61-.47Z"/>
          <path class="cls-6" d="M142.16,38.7l1.18-2.42-3.33-3.63-2.47,1-2.26-2.47,13-4.66,2.02,2.2-5.82,12.5-2.31-2.52ZM146.74,29.87l-4.32,1.76,2.16,2.36,2.15-4.12Z"/>
          <path class="cls-6" d="M156.32,42.36c.13-.4.17-.84.1-1.3-.07-.46-.21-.86-.43-1.19-.11-.17-.24-.33-.39-.49-.15-.16-.31-.27-.48-.36-.18-.08-.37-.13-.56-.13-.2,0-.4.06-.61.2-.18.12-.31.26-.38.41-.07.15-.1.33-.1.54,0,.2.04.43.09.68.06.25.13.53.21.83.12.44.23.9.35,1.39.11.49.15.97.13,1.45-.03.48-.15.94-.37,1.38-.22.44-.59.84-1.12,1.19-.61.4-1.21.64-1.81.71-.59.07-1.16,0-1.7-.18-.54-.19-1.04-.48-1.51-.88-.46-.4-.87-.86-1.21-1.38-.5-.76-.85-1.58-1.06-2.47-.2-.89-.22-1.72-.04-2.52l2.82.55c-.15.47-.19.99-.12,1.56.07.57.24,1.06.51,1.48.13.19.27.36.43.52.16.15.33.27.51.34.18.08.37.1.57.08.2-.02.41-.1.62-.24.2-.13.34-.29.41-.49.07-.19.11-.42.1-.68,0-.26-.05-.56-.14-.9-.09-.34-.19-.72-.31-1.14-.11-.41-.2-.83-.27-1.26-.06-.42-.06-.84,0-1.25s.22-.8.45-1.18c.23-.38.59-.72,1.07-1.04.59-.39,1.17-.6,1.75-.64s1.13.05,1.66.26c.53.21,1.02.52,1.46.93s.84.86,1.17,1.36c.4.6.69,1.29.88,2.06.19.77.23,1.53.11,2.29l-2.81-.5Z"/>
          <path class="cls-6" d="M161.65,51l-9.12,4.36-1.33-2.77,9.12-4.36-1.55-3.25,2.37-1.13,4.43,9.26-2.37,1.13-1.55-3.25Z"/>
        </g>
      </g>
      <g>
        <path class="cls-6" d="M124.13,118.23c-2.12-7.14-6.51-17.4-12.95-20.75-.6-.35-.77-.77-.36-1.33,10.43-11.08,11.76-27.56,7.6-41.46-1.51-9.28-8.16-17.07-15.64-22.32-7.79-5.18-17.12-4.43-25.56-1.88-2.91,1.02-5.82,2.52-8.21,3.68-1.01.38-2.09,1.73-3.04.62-.56-.7-1.63-1.05-2.56-.9-5.21,1.2-8.21,5.73-9.78,10.21-.59,2.09-.29,3.52.39,5.73.28.77.4,1.57.09,2.34-1.44,3.58-2.71,7.74-2.12,11.52.24,1.28-.19,2.44-.42,3.76-2.02,9.37,1.41,18.66,5.41,27.09.88,1.77-1.87,2.76-2.63,4.18-3.64,4.73-5.89,10.71-5.73,16.64.81,3.88,4.33,6.49,7.55,8.1,1.53.98,4.01,1.26,5.44,2.52.75,2.6.6,5.68,1.03,8.28.22,1.58-.09,2.97.14,4.53.29,1.89,2.84,2.96,4.19,1.42.85-.89.8-2.29,1.05-3.17.97-2.45.46-4.92.39-7.45-.06-.72.01-1.58.97-1.33,3.56,1.06,7.73,1.52,11.39,1.84.31.08.5.25.55.53-.04,1.29-.61,2.92-.8,4.36-.45,1.93-.35,3.42.04,5.05.09,1.14.06,2.71,1.1,3.52.96.85,2.67.63,3.41-.39,1.07-1.85.69-4.44,1.39-6.39.47-1.54,1.17-3.29,1.56-5.17.15-.94.87-1.36,1.8-1.3,9.54-.3,17.75.3,25.89-3.29,3.43-1.42,8.57-4.13,8.46-8.6l-.03-.21Z"/>
        <g>
          <path class="cls-4" d="M82.23,77.14s-.07.07-.1.11c0,0-.02.02-.02.03-.12.13-.25.26-.37.39-.07.07-.14.14-.21.21-.68.65-1.43,1.24-2.24,1.74-2.73,1.72-6.07,2.57-9.26,2.36-2.26-.11-4.55-.54-6.6-1.49-.69-.31-1.24-.68-1.91-.95-.03,0-.07,0-.1,0-.43-.01-.72-.56-.32-.87.21-.1.44-.11.67-.05.58.14,1.18.64,1.65.81.86.42,1.71.76,2.62,1,5.43,1.42,8.92.39,13.12-1.69.69-.34,1.39-.71,2.13-1.1.08-.04.16-.09.25-.13.19-.1.38-.21.58-.31,0,0,0,0,0,0,.04-.02.08-.04.12-.07Z"/>
          <path class="cls-4" d="M72.04,86.46c-2.63-.16-5.11-1.25-7.31-2.65-1.15-.69-2.14-1.68-3.42-2.1-.28-.21-.23-.69.11-.83,1.04-.1,2.34,1.24,3.23,1.76,4.14,2.95,9.38,4.16,13.79,1.05,1.25-.9,2.33-2,3.54-2.94.49-.41.99-.83,1.48-1.24-.77,1.36-1.74,2.61-2.89,3.66-2.27,2.15-5.38,3.5-8.53,3.29Z"/>
          <path class="cls-4" d="M84.43,83.37c.17-2.39-1.1-4.64-3.06-5.96-.26-.21-.71-.26-.71-.67.29-1.27,1.87.43,2.35.82,1.67,1.38,2.33,3.82,1.42,5.81Z"/>
          <path class="cls-4" d="M61.68,83.37c-1.39-1.68-1.76-4.34-.18-6.02.37-.35.99.16.71.59,0,0,0,0,0,0-1.25,1.52-1.08,3.67-.53,5.43Z"/>
          <path class="cls-4" d="M70.65,88.71c-.61-.12-2.34-.38-2.4-1.09,0-.26.21-.47.47-.47,1.8.73,3.78,1.1,5.72,1.03.09,0,.19-.02.27-.03-1.24.65-2.7.7-4.06.56Z"/>
          <path class="cls-4" d="M69.45,75.16c-1.42-.48-2.22-2.21-1.75-3.62.26-.87.96-1.48,1.61-2.07,1.7-1.6,3.37-3.5,3.84-5.85.08-.4.13-.81.16-1.22,0-.36.01-.86.48-.86.91.07.29,1.84.24,2.43-.57,2.64-2.5,4.74-4.43,6.51-1.06.78-1.45,2.22-.83,3.4.28.48.67,1.14,1.29,1.13.11,0,.23-.03.32-.07-.24.22-.61.32-.92.21Z"/>
          <path class="cls-4" d="M86.92,67.57c-.02-2.31-2.81-2.37-4.55-2.57-1.12-.1-2.25.05-3.35.14.79-.34,1.56-.73,2.42-.86,1.95-.31,5.02-.07,6.09,1.84.23.48.6,1.59-.2,1.69-.16,0-.33-.09-.41-.23Z"/>
          <path class="cls-4" d="M59.13,65.32c.14-.81.85-1.45,1.45-1.97,1.55-.89,3.78-.61,5.31.21-.44-.1-.91-.11-1.37-.08-1.2.1-2.53.06-3.54.76-.36.32-.66.7-.9,1.11-.02.59-.95.57-.94-.02Z"/>
          <path class="cls-4" d="M88.95,58.09c-.28-.26-.31-.69-.51-1.02-.5-.98-1.39-1.73-2.44-2.04-.86-.3-1.78-.47-2.69-.42-1.14.11-2.82.21-3.28-1.1-.39-1.87,2.22-2.16,3.49-1.65,1.8.52,3.57,1.28,4.76,2.81.51.46,2.53,4.01.67,3.43ZM83.63,52.91s0,0,0,0c-.03,0-.05-.01-.08-.02,0,0-.02,0-.03,0,0,0,0,0,0,.01.03,0,.06,0,.09,0Z"/>
          <path class="cls-4" d="M61.33,57.82c-1-.45.15-1.4.72-1.65.61-.42,1.23-.84,1.87-1.22,1.56-.84,3.36-1.61,5.16-1.34.43.06.86.24,1.21.5.01.04.03.09.05.13.04.07.08.15.12.23.05.09.1.18.17.26.02.03.05.05.07.08.01.03.03.05.04.08.02.06.04.13.07.19.01.03.03.07.05.1,0,.04,0,.08,0,.12,0,.07-.01.14-.02.22,0,.02,0,.03-.01.05,0,.03-.02.06-.02.08,0,.03-.02.06-.03.08.01-.02.02-.05.03-.07-.04.09-.07.19-.1.28-.06.08-.13.15-.19.23.02-.02.03-.04.05-.06-.03.04-.06.07-.09.11,0,0-.01.01-.02.02-.11.04-.21.08-.32.12,0,0,.01,0,.02,0-.01,0-.02,0-.03.01-.03,0-.07,0-.11.02-.07.02-.14.04-.21.06-.05.01-.11.02-.16.04-.04.01-.08.03-.12.04,0,0-.01,0-.02,0-.09,0-.18.02-.27.03,0,0,.02,0,.03,0-.06,0-.12.01-.19.02-.1-.03-.21-.05-.31-.07-.13-.03-.26-.08-.39-.12-.17-.06-.33-.12-.51-.15-.13-.02-.26-.02-.4-.03-.05,0-.11-.01-.16-.02-.15-.03-.3-.08-.45-.11-.15-.03-.3-.02-.46-.01-.1,0-.2,0-.3.01-.11,0-.21.03-.32.04-.06,0-.12,0-.18,0-.12,0-.22.04-.32.09h-.07s-.06,0-.1,0c-.18,0-.33.05-.49.12,0,0,0,0,0,0,0,0,0,0,.01,0,0,0-.01,0-.02.01-.05.02-.1.04-.15.07-.04.02-.08.05-.13.07-.51.07-.96.31-1.51.69-.41.26-.83.69-1.34.69-.05,0-.1,0-.15-.01ZM66.93,54.7s.1,0,.15,0c.04-.03.08-.05.12-.07-.09.02-.18.04-.27.07Z"/>
          <path class="cls-4" d="M68.7,56.46s.02,0,.03,0c-.01,0-.02,0-.03,0Z"/>
          <path class="cls-4" d="M64.6,56.31s0,0,0,0c-.01,0-.02.01-.03.02,0,0,.02-.01.03-.02Z"/>
          <path class="cls-4" d="M70.82,55.55s0,.01,0,.02c0,0,0-.01,0-.02Z"/>
          <path class="cls-4" d="M70.85,55.3s0,.03,0,.05c0-.02,0-.03,0-.05Z"/>
          <path class="cls-4" d="M66.88,54.78c-.21-.74,1.4-.88,1.89-.85.61.09.48,1.01-.13.93-.57-.14-1.45.69-1.76-.08Z"/>
          <path class="cls-4" d="M81.23,77.45c0-.26.21-.47.47-.47s.47.21.47.47-.21.47-.47.47-.47-.21-.47-.47Z"/>
          <path class="cls-4" d="M78.96,79.4c-.28-.52.37-.75.71-.98.58-.39,1.17-.82,1.55-1.42.34-.57,1.18-.02.79.52-.42.66-1.02,1.15-1.66,1.58-.4.23-1,.87-1.39.3Z"/>
          <path class="cls-4" d="M83.13,79.09c.26-.65,1.22-.16.83.47-.08.15-.17.29-.27.43-.6.89-1.39,1.64-2.16,2.38-.08.08-.18.13-.29.13-.14.01-.28-.03-.38-.13-.24-.29-.12-.55.1-.78.21-.22.5-.42.64-.61.55-.55,1.09-1.17,1.49-1.82,0-.02.01-.04.02-.06Z"/>
          <path class="cls-4" d="M60.81,81.41c-.39-.88,1.16-1.01,1-.11-.12.42-.8.49-1.01.11,0,0,0,0,0,0Z"/>
          <path class="cls-4" d="M98.18,72.88c-.24-.51-.53-1.02-1-1.35-.23-.14-.57-.22-.56-.57.12-.88,1.11-.3,1.46.1.42.41.71.92.96,1.45.24.55-.63.93-.87.37Z"/>
          <path class="cls-4" d="M99.23,71.32c-.46-.95-1.13-1.74-1.9-2.43-.28-.19-.54-.55-.29-.87.19-.27.63-.23.79.05.9.78,1.68,1.7,2.21,2.77.31.52-.51,1.01-.81.47Z"/>
          <path class="cls-4" d="M101.53,69.69c.18.37-.25.79-.62.62-.17-.06-.25-.25-.33-.4-.65-1.21-1.23-2.51-2.26-3.44-.22-.19-.45-.39-.73-.48-.15-.04-.3-.17-.33-.33-.04-1.19,1.34-.27,1.75.17.68.61,1.18,1.39,1.63,2.18.32.57.62,1.12.9,1.69Z"/>
          <path class="cls-4" d="M102.91,68.6c.24.56-.63.93-.87.37-.87-2.17-1.79-4.67-3.85-5.97-.2-.11-.41-.18-.62-.23-.44-.16-.36-.84.11-.9,2.41.4,3.86,3.5,4.76,5.53.16.4.31.81.47,1.21Z"/>
          <path class="cls-4" d="M117.41,109.17c-1.28-2.71-2.85-5.4-5.12-7.4-1.73-1.69-4-2.43-6.16-3.36-1.29,1.26-2.62,2.49-3.96,3.69-2.74,2.39-5.54,4.78-7.86,7.57.89-2.73,3.1-4.78,5.26-6.52,2.04-1.78,4.04-3.59,5.97-5.49.05-.15.17-.27.32-.31,1.11-1.1,2.19-2.22,3.23-3.38,5.99-6.57,8.72-15.56,8.83-24.32.02-5.38-1.52-10.58-2.62-15.81-.45-1.91-.97-3.83-1.84-5.59-.89-1.68-2.07-3.19-3.22-4.71-1.84-2.3-3.8-4.53-6.01-6.49-5.01-4.3-11.88-6.62-18.44-5.32-2.62.32-5.23.84-7.77,1.58-2.52.97-4.94,2.18-7.38,3.34-2.73,1.31-5.07,3.27-7,5.58-.04.11-.11.19-.2.24.12.16.25.33.38.5.62-.73,1.51-1.25,2.23-1.88,1.65-1.3,3.36-2.66,5.42-3.21,3.47-.87,7.04-1.39,10.59-1.73,2.84-.06,5.63.72,8.28,1.69,5.45,2.47,10.39,6.27,13.91,11.12,1.26,2,1.79,4.31,2.26,6.59.34,1.76.69,3.53.72,5.33.2,3.79-.05,7.61-.75,11.34-.62,3.02-1.5,5.99-2.17,9.01-1.98,9.81-2.96,11.04-8.72,19.11-2.28,3.18-5.24,5.76-8.45,7.97-3.48,2.62-6.98,5.37-9.6,8.87,1.53-5.72,10.42-9.74,14.44-14.02,1.97-2.03,3.59-4.32,5.15-6.66,1.14-1.71,2.39-3.36,3.3-5.21,1.44-2.79,1.96-5.92,2.68-8.95,1.4-6.29,3.44-12.51,3.26-19.02-.06-4.44-.65-9.02-2.47-13.1-2.19-3.6-5.53-6.39-8.95-8.79-3.85-2.53-8.35-4.43-13.03-4.33-3.61.42-7.28.85-10.78,1.87-2.41.91-4.35,2.77-6.33,4.32-.15.12-.27.26-.42.37.04.04.08.08.12.12.07-.02.14-.02.23,0,2.19-1.15,4.13-2.76,6.46-3.63,3.93-1.46,8.27-1.75,12.41-1.25,3.06.53,6.05,1.51,8.86,2.82,3.17,1.45,5.65,3.97,7.81,6.65,1.97,2.4,3.9,5.07,4.35,8.21.78,4.47-.26,8.96-.76,13.4-.3,2.5-.46,5.01-.86,7.49-.33,2.17-.93,4.28-1.36,6.42-.49,3.16-2.04,5.98-3.61,8.71-1.39,2.37-3.33,4.3-5.19,6.27-1.84,1.89-3.63,3.84-5.6,5.59-.15.12-.31.24-.47.36-.07.07-.16.14-.25.21-2.84,2.32-6.21,5.93-9.82,5.8-2.94-.04-4.39-2.82-6.03-4.82-1.59-1.71-3.17-3.44-4.56-5.32-1.27-1.85-2.39-3.81-3.48-5.77-.88-1.6-1.47-3.33-2-5.07-1.13-1.77-2-3.71-2.56-5.75-.73-2.17-1.63-4.26-2.04-6.51-.45-2.81-.64-5.65-.27-8.47.53-4.88,2.41-9.48,4.89-13.68.3-.56.59-1.14.87-1.71.08.02.16.03.25.03.07,0,.15.01.22.01.03,0,.07,0,.1,0,.07,0,.13-.02.2-.03-.03,0-.05,0-.08,0,.06,0,.11,0,.17,0h0s0,0,0,0c0,0,0,0,0,0,.05,0,.1,0,.15-.02.01,0,.03,0,.04,0-.47,1.01-.95,1.94-1.49,2.9-1.14,2.01-2.14,4.09-2.93,6.26-2.24,6.38-2.24,13.5.4,19.76.84,2.54,1.73,5.17,3.25,7.35,2.21,3.12,5.29,5.7,8.9,6.98,3.29,1.14,6.89,1.3,10.25.37-1.55,1.08-3.46,1.72-5.36,1.53-2.15-.09-4.2-.57-6.1-1.38-.79.44.22,2.13.76,2.49-.08-.04-.16-.08-.24-.14.19.17.38.35.56.52,0,0,0,0,0,0t0,0c-.53-.33-1.06-.66-1.59-1-.58-.37-1.15-.74-1.71-1.13-.08-.05-.16-.11-.24-.17-.02-.01-.04-.02-.05-.03-.12-.06-.23-.12-.35-.17-.48-.13-.96-.26-1.44-.4.42.69.84,1.38,1.27,2.07,1.18,1.74,2.59,3.27,3.98,4.81.08.02.16.06.23.12,1.45.96,3.14,1.41,4.84,1.65,2.85.48,5.8-.17,8.52-.99.51-.18,1.01-.38,1.44-.6.24-.08.5-.31.77-.44,2.67-2.37,5.15-4.95,7.56-7.58,0-.02-.02-.04-.02-.06-.08-.28-.15-.55-.23-.83-.04-.13-.07-.27-.11-.4-.03-.13-.07-.26-.1-.38-.1-.14-.21-.27-.31-.4-.12-.16-.25-.32-.37-.48-.16-.21-.39-.44-.36-.72.02-.13.09-.25.14-.36.04-.09.09-.18.13-.28.07-.15.14-.3.21-.45,0-.03.01-.06.03-.09.06-.15.13-.29.19-.44,0-.01.01-.03.02-.04-1.5.91-3.16,1.55-4.98,1.85,4.96-3,7.48-3.81,10.38-9.1-.82-.5-1.59-1.31-1.07-1.86.62-.42.76.52,1.18.77.55.57,1.55.89,2.23.54.82-3.47,1.52-6.95,1.88-10.49-.06.03-.13.06-.19.08-.58.2-.99.84-1.59.92-.25-.03-.44-.28-.4-.53.11-.42.61-.59.92-.85.36-.19.93-.68,1.35-.56.02-.28.04-.56.06-.83.15-1.67.4-3.34.63-5.02-.88-1.87-.97-3.5-2.99-4.85-.81-.61-1.84-.8-2.67-1.34-1.42-1.08-.55-3.2.72-4.02,1.11-.63,2.01-1.74,1.66-3.09-.72-2.94-3.41-2.76-5.96-2.58-1.01.07-1.99.14-2.83.03-3.93-.42-3.93-4.2-6.94-5.59-2.66-.88-4.76,1.75-7.33,1.91-1.13.06-2.01-.26-2.77-.57-1.68-.7-2.82-1.39-5.05,1.93-.92,1.52-2.22,3.01-3.78,4.02.03-.03.06-.05.09-.08-.01.01-.02.02-.04.03.1-.09.2-.16.3-.25.12-.1.23-.22.34-.34.15-.16.28-.35.4-.53.15-.22.27-.45.41-.68.02-.04.05-.07.07-.11,0,.02-.02.03-.03.05,0,0,0,0,0,0,0,0,0,0,0,0,0,0,0,0,0,.01,0,0,0,0,0-.01,0,0,0,0,0,0,0,0,0,0,0,0,0,0,0,0,0,0,0,0,0,0,0,0,.08-.12.16-.23.24-.35,0,0,0,.01-.01.02,0,0,.01-.02.02-.03,0-.01.02-.02.02-.04,0,.01-.01.02-.02.03.09-.13.16-.25.24-.39.05-.1.09-.19.13-.29.03-.09.08-.17.1-.26.01-.03.02-.06.04-.09.01-.03.03-.06.04-.09.11-.17.22-.33.32-.5,0,0,0,0,0-.01,0,0,0,0,0,.01,0,0,0,0,0,0,0,0,0,0,0,0,0,0,0,0,0,0,0,0,0,0,0,0,0,0,0,0,0,0,0,0,0,0,0,0,0,0,0,0,0,0,0,0,0,0,0,0,0,0,0,0,0,0,0,0,0,0,0,0,0,0,0,0,0,0,0,.01-.01.02-.02.04,0,0,0,0,0,0,0,0,0,0,0,0,0,0,0,0,0,.01h0s0,0,0,.01c0,0,0,0,0-.01.09-.17.2-.33.32-.48.07-.09.14-.18.21-.27.08-.11.14-.22.2-.33-.01.02-.03.05-.04.07.11-.18.21-.36.32-.55.02-.03.04-.06.05-.09.13-.17.27-.33.41-.49,2.01-2.1,3.43-1.49,4.93-.88,1.1.44,2.25.89,3.72.28,2.22-.9,4.66-2.71,7.07-1.29,2.71,1.56,2.98,5.23,6.6,5.32.71.03,1.48-.03,2.27-.08.63-.04,1.28-.09,1.91-.09,1.82,0,3.51.37,4.48,2.17.39.63.58,1.38.56,2.12.55-.13,1.14-.13,1.7,0-1.51-3.3-4.48-6.49-6.89-8.77-2.15-1.93-4.82-3.07-7.52-3.97-3.92-1.45-8.18-1.85-12.3-1.2-1.96.28-3.91.73-5.69,1.63-.91.45-1.78.97-2.63,1.52-.45.22-1.4.97-2.22,1.39-.08.14-.28.27-.62.27-.02,0-.05,0-.07,0-.19.04-.36.03-.48-.06-.06-.04-.11-.09-.14-.14-.6-.33-1.08-1-1.55-1.45-2.13-2.4-1.19-4.28.86-6.28-2.92,1.08-5.13,3.59-6.4,6.34-.58,1.19-1.24,2.68-.96,4,0,.22,0,.45.02.67.02.21.06.41.11.61,0,0,0-.01,0-.02,0,.02,0,.03.01.05,0,0,0-.02,0-.03.01.04.02.07.03.11,0,0,0,.02,0,.02,0,0,0,0,0-.01,0,0,0,0,0,.01,0,0,0,0,0,0,0,0,0,0,0,0,0,0,0,.02,0,.02.05.16.1.32.15.48,0-.02-.02-.05-.02-.07.03.11.07.22.11.33.05.14.09.29.15.43-.48-.54-.86-1.03-1.1-1.4-1.53-2.74,1.16-6.82,2.79-9,1.07-1.26,4.28-3.98,6-3.48,1.51,1.52-3.52,3.01-1.57,5.9.65-.96,1.57-1.7,2.38-2.53,1.43-1.41,3.17-2.48,4.95-3.39,2.75-1.28,5.46-2.74,8.36-3.65,2.34-.55,4.69-1.09,7.08-1.36,6.75-1.33,13.83,1.01,19.03,5.39,3.38,3,6.3,6.51,8.82,10.25,1.64,2.48,2.33,5.43,2.98,8.29,1.02,4.9,2.42,9.79,2.39,14.84-.1,8.07-2.29,16.23-7.17,22.74-1.49,1.91-3.13,3.69-4.84,5.41,1.09.47,2.22.85,3.27,1.4,3.99,2.11,6.53,6.08,8.33,10.09,1.46,3.23,3.35,6.4,3.51,10.03-1.54-3.34-2.96-6.73-4.55-10.04ZM98.03,58.2c-.58,1.76,1.72,1.65,2.7,2.5,1.19.76,2.13,1.88,2.67,3.19.08.21.16.43.24.65.19-1.54.33-3.09.32-4.63-1.26-1.33-2.41-2.72-4.4-3.01-.09-.03-.16-.09-.21-.16-.55.39-1.1.8-1.33,1.45ZM100.2,56.08c1.07.25,2.07.81,2.86,1.55.14.14.49.45.85.81-.06-.76-.16-1.53-.31-2.29-.08-.38-.19-.75-.32-1.13-.02,0-.05-.02-.07-.04-.46-.3-1.04-.29-1.57-.27-.23,0-.45.07-.67.1h-.02c-.15.47-.39.91-.75,1.28Z"/>
          <path class="cls-4" d="M67.04,50.31s-.02.04-.03.05c0,0,0,0,0,0,.01-.02.02-.04.04-.06Z"/>
          <path class="cls-4" d="M68.54,108.49c-2.16-3.55-4.87-6.71-7.26-10.1-.19-.29-.38-.58-.56-.87-2.08.48-3.63,2.25-4.82,3.92-1.15,1.72-2.22,3.55-2.89,5.48-.71,2.23-1.36,4.5-2.2,6.69-.02-4.27,1.53-8.44,3.84-11.99,1.33-2.01,3.13-4.32,5.57-4.92-1.47-2.51-2.62-5.19-3.7-7.89-1.92-4.26-3.16-8.83-3.58-13.49-.22-3.22.23-6.44.98-9.56.1-.47.21-.95.32-1.42-.12-.15-.21-.33-.28-.5-.06-.17-.11-.35-.14-.53-.07-.39-.1-.8-.1-1.2,0-1,.13-2.01.31-3,.08-.42.16-.83.26-1.24,0-.06.03-.12.04-.17.02-.07.03-.13.05-.2.05-.19.09-.37.14-.56.15-.56.32-1.12.5-1.67.18-.54.37-1.07.58-1.6.26-.65.58-1.28.95-1.87.1-.16.21-.32.32-.48,0,0,0-.01.01-.01,0,0,0,0,0,0,.16-.22.33-.43.5-.64.02.02.04.05.06.07.02.03.04.06.06.09,0-.01-.01-.02-.02-.03.05.08.1.16.15.23,0,0,.01.02.02.03-.41.89-.74,1.82-1.1,2.73-.08.21-.17.42-.24.62,0,0,0,.02-.01.03h0c-.4,1.07-.74,2.15-1.01,3.26-.03.12-.06.24-.09.35,0,0,0,.01,0,.02,0,0,0,0,0,0,0,0,0,0,0,0,0,.01,0,.02,0,.03h0s0,0,0,0c0,0,0,0,0,0,0,0,0,0,0,0,0,0,0,0,0,0-.21.92-.38,1.86-.47,2.78,0,.02,0,.04,0,.05h0c-.04.48-.07.95-.05,1.43,0,.06,0,.13.01.19.45-1.67.99-3.31,1.72-4.89.57-1.38,1.27-2.71,2.03-3.99.16-.24.39-.7.66-1.09.14.13.31.23.48.33.11.06.22.13.34.18-.39.55-.72,1.15-1.06,1.74-1.06,1.84-1.89,3.8-2.61,5.79-1.41,4.69-2.65,9.6-2.36,14.52.42,4.55,1.6,8.99,3.47,13.14,1.29,3.22,2.68,6.41,4.57,9.33,3.49,5.28,10.83,12.36,9.88,19.02-.65-2.86-1.79-5.64-3.24-8.18Z"/>
          <path class="cls-4" d="M61.5,54.64c-3.91-.69-6.47-4.83-6.12-8.66.04-.67.53-3.55,1.55-2.38-.01.02-.02.05-.03.08,0-.01,0-.02,0-.03-.02.08-.04.17-.07.25-.04.08-.07.16-.1.23,0-.02.02-.05.03-.07-.05.12-.09.25-.13.37-.03.09-.06.19-.06.29-.07.21-.12.43-.17.65-.07.35-.11.71-.12,1.06-.05.17-.09.35-.1.52-.01.27-.02.55,0,.82.02.22.06.43.12.63,0-.02,0-.03-.01-.05.01.04.02.09.04.13,0,0,0,.02,0,.02h0s0,0,0,0c0,0,0,.01,0,.02,0,0,0,0,0,0,0,0,0,0,0,0,.04.15.09.3.14.45,0,0,0,0,0,0,.03.1.06.19.09.28.05.15.09.3.15.45.05.13.11.26.19.37.06.08.12.15.17.23.06.08.12.16.18.25t0,0s0,0,0,0c.05.06.1.13.15.19.02.02.03.05.05.07,0,0,0,0,0-.01.05.08.1.16.15.23.12.19.24.37.39.53.1.11.21.21.33.3.17.18.35.34.53.5.14.26.41.42.66.56.17.09.33.18.5.26.06.03.12.06.18.08.12.07.25.13.38.16.42.18.84.27,1.25.29.04,0,.07,0,.11,0,0,0,.02,0,.03,0,.53,0,1.04-.11,1.53-.31.07,0,.13-.02.2-.04.12-.03.24-.06.35-.11.15-.06.27-.16.41-.25.13-.08.26-.15.37-.25.07-.06.14-.12.22-.18-.02.01-.04.03-.06.04.09-.06.17-.12.25-.19.05-.04.09-.09.14-.13.05-.05.11-.1.16-.14-.02.02-.04.03-.06.05.1-.09.2-.16.3-.25.12-.1.23-.22.34-.34.15-.16.28-.35.4-.53.11-.16.21-.33.3-.5.1-.14.19-.29.28-.44.04-.05.07-.11.11-.16,0,0,0,.01-.01.02,0-.01.01-.02.02-.03,0,0,.01-.02.02-.03,0,0,0,0,0,0,0,0,0,0,0,0,0,0,0,0,0,0,0,0,0,0,0,0,0,0,0,.01-.01.02.08-.12.16-.24.23-.37,0,0,0,0,0,0,0,.02-.02.03-.03.05,0-.02.02-.03.03-.05,0,0,0,0,0,.01,0-.01.01-.02.02-.03,0,0,0,0,0,0,0,0,0,0,0,0,0,0,0-.01,0-.02,0,0,0,0,0,.01.05-.09.09-.19.13-.28.03-.07.06-.13.08-.2.06-.12.12-.25.18-.37.08-.12.15-.23.22-.35,0,0,0,.01,0,.02,0,0,0,0,0-.01,0,0,0,0,0,.01,0,0,0,0,0,0,0,0,0,0,0,0h0s0,0,0,0c0,0,0,0,0,0,0,0,0,0,0,0,0,0,0,0,0,0h0s0,0,0,0c.09-.17.2-.32.32-.48.07-.09.14-.18.21-.27.08-.11.14-.22.2-.33-.01.02-.03.05-.04.07.11-.18.21-.36.31-.55.02-.04.05-.08.07-.12.03,0,.06.01.09.03.24.1.35.38.25.62-.36.86-.72,1.71-1.16,2.53-1.16,2.28-3.52,4.77-6.24,4.77-.2,0-.4-.01-.6-.04Z"/>
          <path class="cls-4" d="M56.51,49s0,.01,0,.02c0,0,0-.01,0-.02Z"/>
          <path class="cls-4" d="M68.1,48.4s0-.02.01-.02c0,0,0,0,0,0,0,0,0,0,0,0,0,.01-.01.02-.02.03,0,0,0,0,0,0Z"/>
          <path class="cls-4" d="M68.11,48.38s0,.01,0,.02c0,0,0,0,0,0,0,0,0-.01.01-.02Z"/>
          <path class="cls-4" d="M56.49,48.94s0,.03.01.04c0-.01,0-.03-.01-.04Z"/>
          <path class="cls-4" d="M50.51,114c.05-1.46.42-2.89.69-4.33.09-.39.67-.46.86-.11.07.11.07.24.06.32-.07.41-.18.93-.27,1.3-.16.93-.36,1.87-.39,2.82,0,.61-.93.62-.94,0Z"/>
          <path class="cls-4" d="M121.41,119.03c-.31-1.46-.87-2.8-1.39-4.17-.12-.21-.09-.49.11-.64.45-.3.75.11.85.52.19.54.43,1.06.63,1.6.27.7.47,1.42.64,2.14.12.32.15.75-.25.87-.24.07-.51-.08-.58-.33Z"/>
          <path class="cls-4" d="M89.75,128.56c-5.82-.11-11.71-.1-17.42-1.37-2.08-.43-4.07-1.17-6.08-1.87-2.78-.94-5.59-1.82-8.29-2.98-2.92-1.35-6.01-3.26-7.27-6.37-1.17-3.24,1.21-2.82.63-1.77-.02,1.78,1.19,3.29,2.45,4.43,3.08,2.69,7.07,3.86,10.86,5.16,2.28.72,4.4,1.59,6.7,2.19,1.74.45,3.51.76,5.29.99,7.76.84,15.68.75,23.47.39,4.78-.43,9.72-.48,14.11-2.65,2.45-1.07,5.09-2.16,6.65-4.45.22-.32.39-.67.51-1.03.07-.35.23-.8.68-.68,1.11.42-.87,2.94-1.37,3.39-1.71,1.83-4.11,2.75-6.36,3.75-1.9.83-3.87,1.53-5.94,1.81-6.18.82-12.41,1.09-18.64,1.07Z"/>
          <path class="cls-4" d="M88.8,105.4c-1.44-.55-1.17-2.57.04-3.22.43-.29,1.4-.42,1.46.28,0,.47-.46.48-.8.45-.87.24-1.09,1.76.05,1.69.62-.08.57-.85.61-1.3,1.56-1.44,1.17,3.17-1.36,2.11Z"/>
          <path class="cls-4" d="M90.28,104.96c-.73-.59,1.31-1.56-.95-2.52-.12-.11-.17-.3-.12-.46.34-.78,1.37-.01,1.73.4.64.6.55,3.07-.67,2.59Z"/>
          <path class="cls-4" d="M82.38,138.75c-.97.06.21-4.25.25-4.91.76-3.64,1.89-7.31,2.1-11.03.21-7.64.25-13.46,4.62-20.15.42-.79,1.46-.07.75.57-5.61,8.68-3.45,14.6-4.96,23.76-.62,3.1-1.52,6.16-1.99,9.28-.24.62.09,2.57-.77,2.48Z"/>
          <path class="cls-4" d="M82.49,139.08c-.07-.25.08-.51.33-.58.68.04.5-.28.62-.81.12-.8.3-1.55.55-2.32,2.7-6.58,2.25-13.84,2.95-20.77.25-2.78.62-5.59,1.64-8.21.52-1.13,1.23-2.79,2.26-3.45.54-.08.74.72.23.91.05-.02.1-.04.14-.08-3.04,3.79-3.13,8.98-3.55,13.59-.42,6.24-.4,12.55-2.8,18.41-.53,1.04-.19,2.98-1.22,3.57-.37.13-1,.21-1.15-.26Z"/>
          <path class="cls-4" d="M82.75,142.14c-.64-.19.06-2.24-.58-3.66-.03-.35.33-.64.66-.49.39.23.36.81.51,1.2.87.12.3,1.33.29,1.9-.09.45-.24,1.27-.88,1.05Z"/>
          <path class="cls-4" d="M65.48,103.51c-1.48-.71-1.43-4.04.61-3.55.82.27.3,1.46-.38.87-1.17.93,1.03,3.35.64.61-.31-.52.51-1,.81-.47.65,1.06-.23,3.38-1.68,2.55Z"/>
          <path class="cls-4" d="M64.62,135.48c-.25-4.53-1.39-9.03-.5-13.56.9-6.38,3.48-12.93,1.23-19.29-.58-.8.74-1.64,1.15.42,2.1,7.22-1.25,14.44-1.73,21.63-.24,2.78.31,5.52.6,8.26-.05.69.65,2.98-.28,3.01-.26,0-.46-.21-.47-.47Z"/>
          <path class="cls-4" d="M65.05,136.33c-.15-.21-.12-.5.09-.66.13-.1.32-.12.47-.06.62-1.11.19-2.56.19-3.75-.2-3.27-.31-6.57-.03-9.84.22-3.97,1.41-7.85,1.9-11.75.22-2.78-.62-5.5-1.48-8.11-.53-1.1,1.17-1.35.91-.24.89,2.68,1.72,5.48,1.51,8.33-.14,2.06-.72,4.11-1.13,6.08-.4,2.14-.64,4.35-.84,6.5-.17,2.9-.09,5.8.08,8.7.03,1.39.41,2.87-.11,4.22-.2.62-1.04,1.29-1.55.58Z"/>
          <path class="cls-4" d="M65.42,139.25c-.59-.11-.4-.84-.46-1.27.02-.42-.26-1.05.23-1.27.12-.47-.04-1.17.44-1.44.36-.17.78.23.63.6-.3.75.12,3.54-.84,3.38Z"/>
          <path class="cls-4" d="M64.93,139.21c-.76-.49-.19-1.87-.3-2.67,0-.3-.04-.61,0-.91.04-.39.53-.57.81-.29.13.12.17.33.12.49.04.83,0,1.66-.08,2.49.79.3.1,1.29-.54.88Z"/>
          <path class="cls-4" d="M83.12,142.44c-.59-.04-.78-.83-.15-.98.04-.65.05-1.31.1-1.96.04-.41-.11-1.11.49-1.14.26,0,.47.21.47.47-.01.75-.08,1.49-.1,2.24.01.55-.06,1.44-.81,1.37Z"/>
          <path class="cls-4" d="M66.55,104.36c-.28-.19-.28-.58-.41-.87-.17-.47-.35-.93-.48-1.4-.26-.11-.41-.47-.48-.73,0-.25-.08-.55.13-.76.25-.26.73-.16.82.2.4.06.57.54.4.87.18.74.5,1.43.72,2.16.13.39-.35.75-.69.53Z"/>
          <path class="cls-4" d="M87.85,107.19c-.42-.33,0-.76.17-1.11.36-.75.66-1.54,1.19-2.2-.2-.52.76-1.22,1.22-1.16.54.06.63.84.1,1-.4.5-.82,1-1.11,1.58-.32.48-.78,2.45-1.58,1.89Z"/>
          <path class="cls-4" d="M82.55,138.74c.21-2.74,1.04-5.41,1.77-8.05.2-1.59.47-3.17.76-4.75.23-2.02.46-4.02.41-6.06.1-.82-.3-3.53.43-3.86.06-1.33.27-2.64.44-3.96.17-.81.14-1.82.69-2.47.42-1.55,1.01-3.05,1.61-4.54.28-.51,1.08-.09.84.42-.98,2.42-1.91,4.91-2.12,7.53-.11.78.17,2.89-.44,3.33-.12,2.03-.21,4.07-.42,6.09.51.25-.02,2.43-.02,3.01-.31,3.17-1.37,6.17-2.11,9.24-.28,1.15-.56,2.3-.8,3.45-.09.35-.06.89-.52.95-.23.02-.45-.11-.52-.34Z"/>
          <path class="cls-4" d="M64.94,135.71c-.18-5.37-.71-10.85.11-16.19.54-2.93,1.74-5.78,1.89-8.77.14-1.71-.25-3.39-.15-5.09.05-.44-.07-1.19.54-1.22.26,0,.47.21.47.47-.23,1.63.07,3.2.11,4.79.02,2.46-.57,4.82-1.26,7.15.4.36-.28,1.82-.31,2.37-.33,1.73-.38,3.5-.35,5.26-.12,1.01,1.3,13.51-1.05,11.24Z"/>
          <path class="cls-2" d="M64.32,56.44s-.04.02-.06.03c-.16.04-.32.08-.48.13-.06.02-.12.04-.18.06.24-.11.47-.19.72-.22Z"/>
          <path class="cls-2" d="M70.27,54.03s.01.05.02.07c-.16-.12-.34-.22-.52-.31.07.02.14.05.21.08.11.04.21.09.3.15h0Z"/>
          <path class="cls-2" d="M67.75,57.58s-.02,0-.02-.01c0,0,.02,0,.03.01,0,0,0,0,0,0Z"/>
          <path class="cls-2" d="M65.22,57.31s-.03.02-.05.03c0,0,0,0,0,0,.02,0,.03-.02.05-.03Z"/>
          <path class="cls-2" d="M72.07,53.84s-.01-.03-.02-.04c.01.02.02.04.03.06,0,0,0-.01-.01-.02Z"/>
          <path class="cls-6" d="M83.13,79.09s-.02.04-.02.06c-.4.65-.94,1.27-1.49,1.82-.15.19-.44.39-.64.61,0,0,0,0,0,0-.83.72-1.64,1.47-2.53,2.11-4.41,3.11-9.65,1.9-13.79-1.05-.8-.46-1.93-1.59-2.9-1.74-.1-.15-.29-.22-.48-.21.01-.39.06-.77.15-1.14.03,0,.07,0,.1,0,.67.26,1.22.63,1.91.95,2.05.96,4.34,1.38,6.6,1.49,3.2.21,6.53-.63,9.26-2.36.35.05.76-.35,1.07-.53.5-.34.98-.71,1.37-1.18.09,0,.17-.03.24-.07.44.37.84.78,1.18,1.24Z"/>
          <path class="cls-3" d="M102.8,53.83c-.56-.13-1.16-.12-1.7,0,.02-.74-.17-1.49-.56-2.12-.97-1.8-2.67-2.17-4.48-2.17-.63,0-1.27.04-1.91.09-.79.06-1.56.11-2.27.08-3.62-.09-3.89-3.76-6.6-5.32-2.41-1.42-4.85.39-7.07,1.29-1.47.61-2.62.17-3.72-.28-1.51-.61-2.92-1.22-4.93.88-.14.15-.27.3-.39.46,0,0,0,0,0,0,0,0-.01.02-.02.02t0,0s-.04.06-.05.09c-.07.12-.14.25-.22.37-.02.04-.05.08-.07.12,0,0-.01.02-.02.03,0,0-.01.02-.01.03h0c-.05.09-.1.18-.16.26-.02.02-.03.05-.05.07-.05.07-.1.14-.16.2-.03.04-.06.08-.08.11-.01.02-.03.04-.04.06,0,0-.01.01-.02.02-.02.03-.05.07-.07.1-.03.04-.05.08-.08.13,0,0,0,.02-.01.02,0,0,0,0,0,0-.07.12-.14.24-.22.35-.03.04-.05.08-.08.12-.01.03-.03.06-.04.09-.01.03-.02.06-.04.09,0,.02-.01.04-.02.06,0,.03-.02.05-.03.08-.02.04-.03.08-.05.12-.03.07-.06.14-.09.21-.01.02-.02.05-.03.07,0,0,0,0,0,0,0,0,0,0,0,0h0s0,0,0,0c0,0,0,0,0,0,0,0,0,0,0,0,0,0,0,0,0,0h0s-.02.05-.04.07c-.06.1-.11.19-.18.29,0,0-.01.02-.02.03,0,0,0,0,0,.01,0,0,0,0,0,0h0s0,.01-.01.02c0,0-.01.02-.02.02-.03.04-.06.08-.08.12,0,0,0,0,0,0-.04.06-.08.12-.12.18,0,0,0,0,0,0,0,0,0,0,0,0,0,0,0,0,0,.01,0,0,0,0,0,0,0,0,0,0,0,.01,0,.01-.02.03-.03.04-.04.06-.07.12-.1.18,0,0,0,0,0,0-.02.04-.04.07-.06.11-.04.07-.08.14-.12.21,0,.01-.02.03-.03.04,0,.02-.02.03-.03.05,0,0,0,.01-.01.02-.02.03-.03.05-.05.08-.06.09-.13.18-.19.27-.07.09-.14.18-.21.26-.07.07-.14.15-.21.22-.04.04-.09.08-.13.12-.09.07-.18.14-.26.22,0,0-.01.01-.02.02,0,0,0,0,0,0-.02.02-.04.04-.06.06,0,0-.01.01-.02.02-.02.01-.03.03-.05.04-.05.04-.09.09-.14.13-.07.06-.14.12-.21.17,0,0,.02-.01.03-.02-.08.05-.14.12-.22.18-.12.09-.25.17-.37.25-.14.08-.26.18-.41.25-.11.05-.23.08-.35.11-.06.02-.13.03-.2.04-.32.13-.65.23-.99.27,0,0,0-.02.01-.02-.01,0-.03,0-.04,0-.05,0-.1.01-.15.02,0,0,0,0,0,0,0,0,0,0,0,0,0,0,0,0,0,0,0,0,0,0,0,0-.05,0-.11,0-.16,0,.03,0,.05,0,.08,0-.07,0-.13.02-.2.03-.02,0-.05,0-.07,0,0,0-.02,0-.03,0-.02,0-.04,0-.07,0-.05,0-.1,0-.15-.01-.08,0-.16-.01-.25-.03h0c-.29-.04-.59-.12-.89-.25-.14-.03-.26-.09-.38-.16-.06-.03-.12-.05-.18-.08-.08-.04-.16-.08-.24-.12,0,0-.02,0-.02-.01-.04-.02-.07-.04-.11-.06-.04-.02-.09-.05-.13-.07-.03-.02-.06-.04-.09-.05-.03-.02-.06-.04-.1-.06-.03-.02-.06-.04-.09-.06-.02-.01-.03-.02-.05-.03-.03-.02-.06-.04-.09-.07-.01-.01-.03-.02-.04-.04-.08-.07-.15-.16-.2-.26-.19-.16-.36-.32-.53-.5-.11-.1-.22-.2-.33-.3-.15-.16-.28-.35-.39-.53-.03-.04-.05-.08-.08-.12-.03-.04-.05-.08-.07-.12,0,0,0,0,0,.01,0,0-.01-.02-.02-.03-.01-.02-.02-.03-.03-.05-.02-.02-.04-.05-.06-.07-.03-.04-.06-.08-.09-.12-.06-.08-.12-.16-.18-.25-.06-.08-.12-.15-.17-.23-.08-.12-.14-.24-.19-.37-.04-.11-.08-.22-.12-.33,0,0,0,0,0-.01-.01-.03-.02-.07-.03-.1-.02-.05-.03-.09-.05-.14-.02-.05-.03-.09-.05-.14,0,0,0-.02,0-.02,0,0,0-.01,0-.02,0-.02-.01-.03-.02-.05-.04-.12-.07-.23-.11-.35,0,0,0,0,0,0,0,0,0,0,0,0,0,0,0,0,0,0h0s0,0,0,0c0,0,0,0,0,0,0,0,0,0,0,0,0,0,0,0,0,0,0,0,0,0,0,0,0,0,0,0,0,0,0,0,0,0,0,0,0,0,0,0,0,0h0s0,0,0-.01c0,0,0,0,0-.01,0-.03-.02-.06-.02-.08-.06-.21-.1-.42-.12-.63-.02-.21-.02-.42-.02-.62,0-.07,0-.13,0-.2,0-.17.05-.35.1-.52.01-.35.05-.71.12-1.06.05-.22.1-.44.17-.65,0-.1.04-.2.06-.29.04-.13.08-.25.13-.37.02-.05.04-.1.07-.16.02-.08.04-.17.07-.25,0,.01,0,.02,0,.03,0-.03.02-.05.03-.08,0,0,0,0,0,0,.08-.17.16-.34.24-.5,1.28-2.75,3.48-5.26,6.4-6.34-2.05,1.99-2.99,3.88-.86,6.28.47.45.96,1.12,1.55,1.45.03.06.08.11.14.14.12.08.29.09.48.06.02,0,.05,0,.07,0,.33,0,.54-.13.62-.27.82-.42,1.77-1.17,2.22-1.39.85-.55,1.73-1.07,2.63-1.52,1.78-.89,3.73-1.35,5.69-1.63,4.12-.65,8.38-.25,12.3,1.2,2.7.9,5.37,2.05,7.52,3.97,2.41,2.28,5.38,5.47,6.89,8.77Z"/>
          <path class="cls-3" d="M103.6,56.15c.16.76.26,1.53.31,2.29-.35-.36-.7-.67-.85-.81-.8-.74-1.8-1.3-2.86-1.55.35-.36.6-.8.75-1.28h.02c.22-.03.44-.09.67-.1.53-.02,1.11-.03,1.57.27.02.02.05.03.07.04.13.38.24.76.32,1.13Z"/>
          <path class="cls-3" d="M103.96,59.91c0,1.54-.13,3.08-.32,4.63-.08-.22-.16-.43-.24-.65-.53-1.31-1.48-2.43-2.67-3.19-.99-.85-3.28-.74-2.7-2.5.23-.66.78-1.06,1.33-1.45.05.07.11.12.21.16,1.99.29,3.14,1.68,4.4,3.01Z"/>
          <path class="cls-4" d="M62.55,57.06c-.39-.09-.47-.68-.11-.86.21-.1.41-.21.62-.31.83-.39,1.76-.52,2.67-.53.84-.02,1.68.09,2.49.31.46.09.98.21,1.44.08.28-.18.51-.54.22-.81-.35,0-.66-.27-1.03-.25-.41-.04-1.01.19-1.11-.39-.05-.52.46-.56.85-.56.23,0,.46.02.68.05.23-.08.49-.02.7.08.78.29,1.25,1.25.83,2-.66,1.28-2.19.86-3.31.59-.95-.18-1.93-.23-2.88-.06-.27.06-.55.12-.82.2-.43.11-.78.52-1.23.46Z"/>
          <path class="cls-1" d="M64.51,63.48c.46-.02.93-.02,1.37.08-.87-.47-1.97-.76-3.04-.76-.81,0-1.6.17-2.26.55-.6.52-1.31,1.16-1.45,1.97,0,.6.92.62.94.02.25-.41.55-.79.9-1.11,1.01-.69,2.34-.65,3.54-.76ZM65.64,57.08s.08-.01.13-.02c-.06,0-.11,0-.16,0,0,0,0,0,0,0,.01,0,.02.01.04.02ZM70.8,55.58c0-.16.04-.33.07-.48-.04-.41-.21-.79-.55-1.08-.02-.03-.04-.05-.06-.08,0,.03,0,.07.01.1-.09-.06-.19-.11-.3-.15-.07-.03-.13-.06-.21-.08-.22-.1-.45-.17-.69-.2-1.8-.27-3.6.5-5.16,1.34-.64.38-1.26.8-1.87,1.22-.57.25-1.72,1.2-.72,1.65.58.1,1.04-.39,1.49-.68.15-.11.3-.2.44-.29,0,0,.02-.01.03-.02,0,0,0,0,0,0,.07-.05.15-.09.22-.12.72-.46,1.6-.65,2.44-.57,1.2.14,2.39.39,3.6.34.63.02,1.02-.38,1.25-.9ZM74.03,63.98c.05-.58.67-2.35-.24-2.43-.47,0-.49.5-.48.86-.03.41-.08.81-.16,1.22-.46,2.35-2.14,4.25-3.84,5.85-.65.59-1.35,1.2-1.61,2.07-.47,1.41.33,3.13,1.75,3.62.32.11.68.01.92-.21-.1.03-.21.06-.32.07-.62.02-1.01-.65-1.29-1.13-.62-1.18-.22-2.62.83-3.4,1.94-1.77,3.86-3.87,4.43-6.51ZM74.72,88.14c-.08,0-.18.03-.27.03-1.94.07-3.92-.3-5.72-1.03-.26,0-.47.21-.47.47.06.71,1.79.98,2.4,1.09,1.36.14,2.83.09,4.06-.56ZM84.43,83.37c.91-1.99.25-4.42-1.42-5.81-.48-.4-2.06-2.1-2.35-.82,0,.27.19.39.4.49-.37.49-.88.85-1.39,1.19-.15.1-.35.2-.52.32-4.2,2.08-7.69,3.1-13.12,1.69-.91-.24-1.76-.58-2.62-1-.47-.18-1.07-.68-1.65-.81.12-.24.27-.47.45-.68,0,0,0,0,0,0,.28-.44-.34-.94-.71-.59-1.57,1.68-1.21,4.34.18,6.02-.17-.53-.3-1.09-.37-1.66,1.28.42,2.26,1.42,3.41,2.1,2.2,1.4,4.68,2.49,7.31,2.65,3.15.2,6.26-1.15,8.53-3.29.24-.22.46-.44.68-.67h0c.11,0,.21-.05.29-.13.76-.75,1.55-1.5,2.16-2.38.54,1.03.82,2.19.74,3.39ZM87.33,67.81c.79-.1.43-1.21.2-1.69-1.07-1.91-4.14-2.15-6.09-1.84-.86.13-1.63.52-2.42.86.84-.07,1.69-.17,2.55-.17.27,0,.54.01.81.03,1.74.2,4.53.26,4.55,2.57.08.14.24.23.41.23ZM88.95,58.09c1.86.59-.16-2.96-.67-3.43-1.19-1.53-2.96-2.29-4.76-2.81-1.27-.51-3.88-.22-3.49,1.65.46,1.32,2.14,1.22,3.28,1.1.1,0,.21,0,.31,0,.81,0,1.61.16,2.37.43,1.05.32,1.94,1.07,2.44,2.04.19.32.23.76.51,1.02ZM98.18,72.88c.24.56,1.11.19.87-.37-.25-.53-.54-1.04-.96-1.45-.22-.25-.67-.56-1.02-.56-.22,0-.39.12-.44.46-.01.35.32.42.56.57.47.33.75.85,1,1.35ZM99.23,71.32c.3.53,1.12.05.81-.47-.53-1.07-1.31-1.99-2.21-2.77-.08-.15-.25-.23-.41-.23-.14,0-.28.06-.37.18-.25.32.01.68.29.87.77.69,1.43,1.48,1.89,2.43ZM100.91,70.31c.37.17.8-.25.62-.62-.28-.57-.58-1.12-.9-1.69-.45-.79-.94-1.57-1.63-2.18-.26-.28-.91-.75-1.34-.75-.25,0-.42.15-.4.58.03.16.18.29.33.33.28.09.51.29.73.48,1.04.93,1.62,2.23,2.26,3.44.07.15.15.34.33.4ZM102.04,68.96c.23.57,1.11.19.87-.37-.16-.4-.31-.8-.47-1.21-.9-2.03-2.35-5.12-4.76-5.53-.47.06-.55.74-.11.9.22.05.43.12.62.23,2.06,1.3,2.99,3.8,3.85,5.97ZM103.39,66.45c-.24,1.68-.49,3.35-.63,5.02-.02.28-.04.56-.06.83-.42-.12-1,.37-1.35.56-.31.26-.8.43-.92.85-.04.25.15.5.4.53.6-.08,1.01-.72,1.59-.92.06-.02.13-.05.19-.08-.36,3.54-1.06,7.03-1.88,10.49-.68.35-1.68.03-2.23-.54-.42-.25-.56-1.19-1.18-.77-.52.55.25,1.36,1.07,1.86-2.9,5.29-5.41,6.1-10.38,9.1,1.82-.3,3.48-.95,4.98-1.85,0,.01-.01.03-.02.04-.06.15-.13.29-.19.44-.01.03-.02.06-.03.09-.07.15-.14.3-.21.45-.04.09-.09.18-.13.28-.05.12-.12.24-.14.36-.04.29.19.51.36.72.12.16.25.32.37.48.1.13.21.26.31.4.04.13.07.25.1.38.04.13.07.27.11.4.08.28.15.56.23.83,0,.02.01.04.02.06-2.41,2.64-4.89,5.21-7.56,7.58-.26.12-.53.35-.77.44-.43.21-.93.42-1.44.6-2.08.63-4.29,1.16-6.49,1.16-.68,0-1.36-.05-2.03-.16-1.7-.24-3.39-.69-4.84-1.65-.07-.06-.15-.1-.23-.12-1.39-1.55-2.8-3.07-3.98-4.81-.43-.69-.85-1.37-1.27-2.07.48.14.96.27,1.44.4.12.05.24.11.35.17.02.01.04.02.05.03.08.06.16.11.24.17.56.38,1.13.76,1.71,1.13.53.34,1.06.67,1.59,1t0,0s0,0,0,0c-.19-.17-.38-.35-.56-.52.08.05.16.1.24.14-.54-.36-1.55-2.05-.76-2.49,1.9.81,3.95,1.29,6.1,1.38,1.91.19,3.82-.45,5.36-1.53-3.36.93-6.96.77-10.25-.37-3.62-1.29-6.69-3.86-8.9-6.98-1.52-2.18-2.41-4.81-3.25-7.35-2.63-6.25-2.63-13.38-.4-19.76.78-2.17,1.79-4.25,2.93-6.26.35-.63.69-1.26,1.01-1.9h0c2.72,0,5.09-2.48,6.24-4.77.19-.35.37-.72.54-1.08h0c.13-.19.25-.38.36-.57,2.22-3.32,3.37-2.63,5.05-1.93.76.32,1.64.63,2.77.57,2.57-.16,4.67-2.79,7.33-1.91,3.01,1.39,3.01,5.18,6.94,5.59.84.12,1.82.05,2.83-.03,2.55-.18,5.24-.37,5.96,2.58.35,1.35-.55,2.46-1.66,3.09-1.27.82-2.14,2.94-.72,4.02.84.54,1.86.73,2.67,1.34,2.02,1.35,2.1,2.98,2.99,4.85Z"/>
          <path class="cls-5" d="M121.41,119.03s0,0,0,0c-.02.06-.03.12-.05.18-.13.36-.3.71-.51,1.03-1.56,2.29-4.2,3.38-6.65,4.45-4.4,2.17-9.33,2.23-14.11,2.65-4.38.2-8.8.32-13.21.24.44-3.38.53-6.82.77-10.24.33-3.58.45-7.51,1.92-10.87,2.27-1.79,4.33-3.82,6.02-6.18,5.76-8.06,6.74-9.3,8.72-19.11.67-3.01,1.54-5.98,2.17-9.01.71-3.73.96-7.55.75-11.34-.04-1.8-.39-3.57-.73-5.33-.47-2.28-1-4.59-2.26-6.59-3.52-4.86-8.46-8.65-13.91-11.12-2.65-.97-5.44-1.75-8.28-1.69-3.56.34-7.13.87-10.59,1.73-2.07.55-3.77,1.92-5.42,3.21-.73.63-1.61,1.15-2.23,1.88-.13-.17-.26-.34-.38-.5.09-.05.16-.12.2-.24,1.93-2.31,4.27-4.28,7-5.58,2.44-1.16,4.86-2.37,7.38-3.34,2.54-.73,5.15-1.25,7.77-1.58,6.56-1.3,13.43,1.02,18.44,5.32,2.21,1.96,4.17,4.19,6.01,6.49,1.15,1.51,2.33,3.02,3.22,4.71.88,1.77,1.39,3.68,1.84,5.59,1.1,5.23,2.64,10.43,2.62,15.81-.11,8.76-2.84,17.75-8.83,24.32-1.04,1.16-2.12,2.28-3.23,3.38-.15.04-.26.17-.32.31-1.93,1.89-3.93,3.71-5.97,5.49-2.16,1.74-4.38,3.79-5.26,6.52,2.32-2.8,5.13-5.18,7.86-7.57,1.34-1.21,2.67-2.43,3.96-3.69,2.16.94,4.43,1.67,6.16,3.36,2.27,2,3.84,4.69,5.12,7.4.92,1.91,1.78,3.85,2.64,5.79.51,1.33,1.06,2.65,1.36,4.07Z"/>
          <path class="cls-5" d="M106.37,63.3c.18,6.51-1.86,12.73-3.26,19.02-.72,3.03-1.24,6.16-2.68,8.95-.91,1.86-2.16,3.5-3.3,5.21-1.57,2.34-3.18,4.62-5.15,6.66-.2.21-.41.43-.64.64,0-.07,0-.13,0-.2.04-.13.02-.27-.04-.38-.06-.34-.18-.64-.35-.81-.18-.21-.54-.5-.89-.65.93-.95,1.85-1.92,2.78-2.88,1.86-1.97,3.8-3.9,5.19-6.27,1.57-2.74,3.13-5.56,3.61-8.71.44-2.14,1.04-4.25,1.36-6.42.4-2.48.56-4.99.86-7.49.5-4.44,1.54-8.93.76-13.4-.45-3.15-2.38-5.81-4.35-8.21-2.15-2.69-4.63-5.2-7.81-6.65-2.81-1.31-5.81-2.29-8.86-2.82-4.14-.5-8.48-.2-12.41,1.25-2.33.87-4.27,2.48-6.46,3.63-.08-.02-.16-.02-.23,0-.04-.04-.08-.08-.12-.12.15-.1.27-.25.42-.37,1.98-1.55,3.92-3.41,6.33-4.32,3.5-1.02,7.16-1.46,10.78-1.87,4.68-.1,9.17,1.79,13.03,4.33,3.42,2.39,6.76,5.18,8.95,8.78,1.82,4.08,2.42,8.66,2.48,13.1Z"/>
          <path class="cls-5" d="M87.82,103.92c0,.32.07.64.24.9-.45.84-.83,1.66-1.16,2.49-3.97,2.91-8.34,5.99-9.37,9.84,2.42-3.23,5.59-5.83,8.8-8.27-1.41,4.37-1.47,8.73-1.62,13.93-.09,1.57-.34,3.14-.66,4.7-2.49-.1-4.97-.27-7.44-.54-1.78-.23-3.55-.54-5.29-.99-1.64-.44-3.19-1-4.77-1.55.02-.53.04-1.07.07-1.6.2-2.16.44-4.37.84-6.5.41-1.98.99-4.03,1.13-6.08.04-.55.04-1.1.01-1.64,1.43,2.51,2.54,5.25,3.18,8.07.49-3.43-1.22-6.97-3.47-10.32-.25-1.3-.63-2.57-1.04-3.82.03-.09.05-.18.06-.27,1.06,1.29,2.19,2.52,3.33,3.74,1.64,1.99,3.09,4.78,6.03,4.82,3.61.13,6.98-3.48,9.82-5.8.1-.06.18-.13.25-.2.16-.13.31-.25.47-.36.2-.17.39-.35.58-.52Z"/>
          <path class="cls-5" d="M65.9,104.59c1.19,5.74-.97,11.61-1.78,17.33-.11.54-.18,1.08-.24,1.61-3.56-1.21-7.23-2.39-10.11-4.91-1.23-1.11-2.41-2.58-2.45-4.31.07-.08.12-.18.12-.32.03-.95.23-1.88.39-2.82.09-.37.19-.89.27-1.3,0-.04.01-.08,0-.13.3-.95.59-1.9.89-2.84.67-1.93,1.74-3.76,2.89-5.48,1.2-1.67,2.75-3.43,4.82-3.92.18.29.37.58.56.87,1.48,2.11,3.1,4.12,4.62,6.2Z"/>
          <path class="cls-5" d="M65.6,99.92c-.66.05-1.02.6-1.12,1.25-.95-1.24-1.85-2.42-2.58-3.52-1.89-2.92-3.28-6.11-4.57-9.33-1.87-4.16-3.05-8.59-3.47-13.14-.28-4.92.96-9.83,2.36-14.52.72-1.99,1.56-3.95,2.61-5.79.19-.33.37-.65.57-.98.52.29,1.09.52,1.69.67-.14.29-.29.57-.44.85-2.48,4.2-4.36,8.8-4.89,13.68-.37,2.82-.19,5.66.27,8.47.41,2.26,1.31,4.34,2.04,6.51.56,2.04,1.43,3.98,2.56,5.75.53,1.74,1.12,3.47,2,5.07.95,1.7,1.91,3.39,2.98,5.02Z"/>
          <path class="cls-5" d="M58.62,53.38c-.07.13-.14.24-.2.33-.77,1.28-1.46,2.61-2.03,3.99-.73,1.58-1.27,3.22-1.72,4.89,0-.06,0-.13-.01-.19-.02-.48.01-.95.05-1.43h0s0-.04,0-.06c.09-.91.26-1.85.47-2.78,0,0,0,0,0,0,0,0,0,0,0,0,0,0,0,0,0,0h0s0-.02,0-.03c0,0,0,0,0,0,0,0,0,0,0,0,0,0,0-.01,0-.02.03-.12.06-.24.09-.35.27-1.1.61-2.19,1.01-3.25h0s0-.02.01-.03c.07-.19.16-.4.24-.62.23-.58.45-1.18.68-1.76.4.5.87.95,1.38,1.34Z"/>
        </g>
      </g>
    </g>
  </g>
</svg>