<?xml version="1.0" encoding="UTF-8"?>
<svg id="Ebene_2" data-name="Ebene 2" xmlns="http://www.w3.org/2000/svg" viewBox="0 0 148.76 147.91">
  <defs>
    <style>
      .cls-1 {
        fill: #ffe1bb;
      }

      .cls-1, .cls-2, .cls-3, .cls-4, .cls-5, .cls-6 {
        stroke-width: 0px;
      }

      .cls-2 {
        fill: #fff0d2;
      }

      .cls-3 {
        fill: #ffe100;
      }

      .cls-4 {
        fill: #000;
      }

      .cls-5 {
        fill: #5e449a;
      }

      .cls-6 {
        fill: #fff;
      }
    </style>
  </defs>
  <g id="Ebene_1-2" data-name="Ebene 1">
    <g>
      <g>
        <g>
          <path class="cls-6" d="M7.73,78.07c-.64.01-1.18-.1-1.63-.33-.44-.23-.8-.55-1.08-.94-.28-.4-.48-.86-.61-1.39s-.2-1.07-.21-1.64l-.02-1.32-4.14.07-.04-2.65,10.97-.18.07,4.03c0,.6-.04,1.16-.15,1.68-.11.52-.29.98-.55,1.37-.26.39-.6.7-1.02.93-.43.23-.95.35-1.58.36ZM7.67,75.42c.26,0,.47-.06.63-.17.16-.11.29-.25.38-.42.09-.18.15-.38.18-.6.03-.22.04-.45.04-.69l-.02-1.16-2.59.04.02,1.12c0,.25.03.49.07.71.04.23.12.43.23.61.11.18.25.32.42.42.17.1.39.15.65.14Z"/>
          <path class="cls-6" d="M1.2,86.65l3.95-3.01-.14-.89-4.31.66-.39-2.56,10.85-1.66.63,4.14c.08.52.1,1.04.07,1.55-.03.51-.14.98-.34,1.42-.2.43-.48.8-.87,1.1-.38.3-.89.5-1.51.59-.74.11-1.38,0-1.95-.31-.56-.32-1-.82-1.33-1.49l-4.21,3.55-.47-3.06ZM8.71,85.39c.26-.04.45-.12.6-.26.14-.13.24-.29.3-.47.06-.18.09-.38.09-.6s-.02-.42-.05-.62l-.21-1.4-2.53.39.19,1.25c.03.22.08.43.15.65s.17.42.29.59c.12.17.28.3.47.39.19.09.43.12.7.07Z"/>
          <path class="cls-6" d="M2.35,92.19l10.48-3.26,2.19,7.05-2.13.66-1.43-4.6-1.98.62,1.35,4.35-2.03.63-1.35-4.35-2.18.68,1.52,4.87-2.16.67-2.28-7.31Z"/>
          <path class="cls-6" d="M16.19,106.47c-.58.28-1.12.41-1.61.38-.5-.02-.96-.16-1.37-.4-.42-.25-.8-.58-1.14-1-.34-.42-.63-.89-.88-1.4l-.57-1.19-3.73,1.8-1.15-2.39,9.89-4.76,1.75,3.63c.26.54.45,1.07.57,1.59.12.52.14,1.01.08,1.48-.07.46-.25.89-.54,1.27-.29.39-.72.72-1.29.99ZM15.03,104.09c.23-.11.4-.25.51-.42.1-.16.16-.35.17-.55s-.02-.4-.09-.62-.15-.43-.26-.64l-.5-1.05-2.33,1.12.48,1.01c.11.22.23.43.37.62.14.19.29.34.46.46.17.12.36.19.55.21.2.02.41-.03.65-.14Z"/>
          <path class="cls-6" d="M14.47,117.57l1.3-1.91-2.38-3.52-2.24.54-1.62-2.39,11.67-2.35,1.44,2.13-6.53,9.93-1.65-2.44ZM19.48,110.62l-3.9.96,1.55,2.28,2.35-3.24Z"/>
          <path class="cls-6" d="M21.71,125.95l1.52-4.73-.62-.66-3.16,3-1.78-1.88,7.97-7.55,2.88,3.04c.36.38.68.79.94,1.23.27.44.44.89.53,1.36.09.47.06.93-.09,1.4-.14.46-.45.91-.9,1.35-.54.51-1.13.8-1.78.85-.64.06-1.29-.1-1.94-.47l-1.44,5.31-2.13-2.25ZM27.16,120.64c.19-.18.3-.36.34-.55.04-.19.03-.38-.02-.56-.05-.18-.14-.37-.27-.54-.12-.18-.25-.34-.39-.48l-.97-1.03-1.86,1.76.87.92c.15.16.32.31.5.45.18.14.37.25.57.32.2.07.4.09.61.06.21-.03.42-.15.62-.34Z"/>
          <path class="cls-6" d="M25.79,129.83l6.77-8.64,5.81,4.55-1.38,1.76-3.8-2.97-1.28,1.64,3.59,2.81-1.31,1.67-3.59-2.81-1.4,1.79,4.02,3.14-1.39,1.78-6.03-4.72Z"/>
          <path class="cls-6" d="M46.02,136.42c-.46.84-1.02,1.48-1.67,1.92-.65.44-1.34.72-2.06.83-.73.11-1.47.09-2.21-.08-.75-.17-1.45-.43-2.11-.8l-3.59-1.97,5.28-9.62,3.48,1.91c.68.37,1.31.82,1.88,1.34.57.52,1.02,1.11,1.33,1.76s.46,1.37.44,2.16c-.02.79-.28,1.64-.78,2.54ZM43.6,135.09c.3-.54.46-1.04.48-1.5.02-.45-.06-.87-.24-1.24s-.43-.71-.76-1.01c-.33-.3-.69-.56-1.09-.77l-1.15-.63-3.09,5.63,1.1.6c.42.23.84.4,1.28.52.44.12.86.15,1.28.09s.81-.22,1.18-.48c.38-.27.71-.67,1-1.2Z"/>
          <path class="cls-6" d="M55.29,136.28l-.63,2.17,4.08,1.19-.61,2.1-4.08-1.19-1.19,4.09-2.52-.73,3.07-10.54,6.93,2.02-.63,2.17-4.42-1.29Z"/>
          <path class="cls-6" d="M72.29,142.5c-.1.86-.34,1.63-.72,2.31-.38.68-.86,1.24-1.45,1.69-.59.45-1.26.77-2.02.96-.76.19-1.57.24-2.42.14-.85-.1-1.62-.33-2.32-.69-.69-.36-1.27-.83-1.74-1.4s-.81-1.23-1.03-1.98c-.21-.75-.27-1.55-.17-2.42.1-.87.34-1.64.72-2.31.38-.67.86-1.22,1.45-1.65.59-.43,1.26-.74,2.01-.92.75-.18,1.56-.22,2.41-.13.85.1,1.63.32,2.32.68.7.35,1.28.8,1.75,1.36s.81,1.2,1.03,1.94c.22.74.27,1.54.17,2.42ZM69.47,142.17c.05-.47.03-.92-.08-1.35-.11-.43-.28-.8-.52-1.13-.24-.32-.54-.59-.9-.81-.37-.21-.78-.35-1.24-.4-.46-.05-.89-.02-1.29.11-.4.13-.76.32-1.07.58-.31.26-.57.59-.76.98-.2.39-.32.83-.38,1.3-.06.49-.03.96.07,1.39.11.43.28.82.51,1.14.24.33.54.6.9.81.36.21.77.35,1.23.4.46.05.89.02,1.29-.11.4-.13.76-.32,1.07-.59s.57-.6.77-.99.33-.84.39-1.34Z"/>
          <path class="cls-6" d="M80.75,147.56l-2.64-4.21-.9.05.26,4.35-2.58.16-.66-10.96,4.18-.25c.53-.03,1.04,0,1.55.07.51.08.97.23,1.38.47.41.23.75.56,1.01.96.26.41.41.93.45,1.56.04.74-.12,1.38-.49,1.91-.37.53-.91.92-1.61,1.18l3.14,4.52-3.09.19ZM80.19,139.97c-.02-.26-.08-.46-.2-.62-.12-.15-.27-.27-.44-.35-.18-.08-.37-.13-.59-.14-.21-.02-.42-.02-.62,0l-1.42.08.15,2.55,1.26-.08c.22-.01.44-.04.67-.09.23-.05.43-.13.61-.23.18-.1.33-.25.43-.43s.15-.41.14-.69Z"/>
          <path class="cls-6" d="M92.52,136.57l2.23,8.42-2.56.68-2.23-8.42-3,.79-.58-2.19,8.56-2.27.58,2.19-3,.79Z"/>
          <path class="cls-6" d="M106.49,140.56l-1.86-4.19-3.91,1.74,1.86,4.19-2.42,1.08-4.46-10.03,2.42-1.08,1.69,3.8,3.91-1.74-1.69-3.8,2.42-1.08,4.46,10.03-2.42,1.08Z"/>
          <path class="cls-6" d="M112.03,137.67l-6.01-9.18,6.17-4.04,1.22,1.87-4.03,2.64,1.14,1.74,3.81-2.49,1.16,1.78-3.81,2.49,1.25,1.91,4.27-2.79,1.24,1.89-6.41,4.19Z"/>
          <path class="cls-6" d="M119.83,120.81l1.59,1.62,3.03-2.98,1.53,1.56-3.03,2.98,2.99,3.04-1.87,1.84-7.69-7.83,5.16-5.06,1.59,1.62-3.29,3.23Z"/>
          <path class="cls-6" d="M134.71,113.01c.3.5.48,1.04.55,1.6.06.56,0,1.14-.17,1.74-.18.6-.48,1.18-.9,1.75-.43.58-.91,1.04-1.43,1.37-.52.33-1.06.55-1.61.64-.55.09-1.11.06-1.67-.09-.56-.15-1.11-.42-1.64-.82l-5.48-4.09,1.58-2.11,5.3,3.96c.24.18.49.32.75.42.26.1.53.15.79.15.27,0,.53-.07.78-.21s.5-.35.72-.65.36-.59.42-.88c.06-.29.05-.56-.02-.82-.07-.26-.19-.5-.36-.72-.17-.22-.38-.42-.62-.6l-5.3-3.96,1.59-2.12,5.48,4.09c.53.4.95.84,1.25,1.35Z"/>
          <path class="cls-6" d="M133.03,102.96l7.7,4.07-1.24,2.34-7.7-4.07-1.45,2.74-2-1.06,4.14-7.82,2,1.06-1.45,2.74Z"/>
          <path class="cls-6" d="M143.9,92.75c.44.39.78.84,1.01,1.35.23.52.36,1.09.37,1.71.02.62-.09,1.27-.32,1.95-.24.68-.55,1.26-.94,1.74s-.84.84-1.34,1.1c-.5.26-1.04.4-1.62.43s-1.19-.06-1.81-.28l-6.47-2.22.86-2.49,6.26,2.15c.28.1.56.15.84.17s.55-.02.8-.1c.25-.08.48-.23.68-.44.2-.21.36-.49.49-.84.12-.35.17-.67.13-.96-.03-.29-.12-.55-.27-.77-.15-.22-.34-.42-.57-.57-.23-.16-.49-.28-.77-.38l-6.26-2.15.86-2.51,6.47,2.22c.63.21,1.16.52,1.6.9Z"/>
          <path class="cls-6" d="M147.99,83.97l-4.69,1.63-.15.89,4.3.72-.43,2.55-10.83-1.81.69-4.13c.09-.52.23-1.02.41-1.49.19-.48.45-.89.77-1.24.32-.35.71-.61,1.17-.77.46-.16,1-.2,1.62-.09.73.12,1.32.42,1.75.91.43.48.7,1.09.79,1.83l5.11-2.05-.51,3.06ZM140.46,82.82c-.25-.04-.47-.02-.65.06-.18.08-.32.2-.44.35-.12.15-.21.33-.27.54-.07.2-.11.4-.15.6l-.23,1.4,2.52.42.21-1.24c.04-.21.05-.44.06-.67,0-.23-.03-.45-.09-.65-.06-.2-.17-.37-.32-.52-.15-.15-.37-.24-.64-.29Z"/>
          <path class="cls-6" d="M148.62,78.41l-10.97-.2.13-7.38,2.23.04-.09,4.82,2.08.04.08-4.56,2.12.04-.08,4.56,2.28.04.09-5.1,2.26.04-.14,7.66Z"/>
        </g>
        <g>
          <path class="cls-6" d="M11.65,40.66c-.36.08-.7.25-1.01.5-.31.26-.54.54-.69.85-.08.16-.14.33-.19.5s-.07.35-.05.52c.02.17.07.33.15.48.08.15.22.27.42.37.17.08.32.11.47.1s.29-.07.44-.17c.15-.09.3-.22.46-.37s.33-.33.52-.52c.27-.28.57-.57.87-.87.31-.3.65-.54,1.02-.73.37-.19.76-.3,1.19-.34.42-.04.88.07,1.38.3.57.27,1.01.62,1.32,1.02.31.41.52.86.62,1.34.1.48.1.99.01,1.5-.09.52-.25,1.02-.49,1.5-.34.71-.79,1.33-1.36,1.87-.57.54-1.18.92-1.85,1.14l-.84-2.33c.41-.1.82-.3,1.21-.6.39-.3.68-.64.87-1.03.09-.18.15-.36.19-.54.04-.19.05-.36.03-.53-.02-.17-.09-.32-.19-.46-.1-.14-.25-.26-.45-.35-.19-.09-.37-.12-.54-.09-.18.03-.36.11-.55.23-.19.12-.39.29-.6.5-.21.21-.45.46-.71.73-.26.27-.53.52-.81.75-.29.24-.59.42-.93.55-.33.13-.69.19-1.07.19-.38,0-.8-.12-1.24-.33-.55-.26-.97-.6-1.25-1.02s-.46-.86-.54-1.34-.06-.98.04-1.49c.1-.51.27-1,.49-1.47.27-.56.65-1.08,1.13-1.56.49-.48,1.03-.85,1.65-1.09l.87,2.3Z"/>
          <path class="cls-6" d="M23.58,32.76c.32.49.52,1.02.6,1.58.08.56.04,1.14-.11,1.75-.16.6-.44,1.2-.85,1.78-.41.59-.88,1.06-1.38,1.42-.51.35-1.04.58-1.59.69-.55.11-1.11.1-1.68-.04-.57-.13-1.12-.39-1.67-.77l-5.61-3.91,1.51-2.16,5.43,3.79c.25.17.5.3.77.39.26.09.53.13.8.12.27-.01.52-.09.78-.23s.49-.37.7-.68c.21-.31.34-.6.39-.89.05-.29.03-.56-.05-.82-.08-.26-.21-.49-.39-.7-.18-.21-.39-.41-.64-.58l-5.43-3.79,1.52-2.17,5.61,3.91c.54.38.97.81,1.29,1.31Z"/>
          <path class="cls-6" d="M31.03,28.25l-4.78-1.36-.63.64,3.11,3.05-1.82,1.85-7.83-7.7,2.93-2.98c.37-.38.77-.7,1.2-.99.43-.28.87-.47,1.34-.58.46-.1.93-.09,1.4.04.47.13.93.41,1.38.85.53.52.83,1.1.91,1.75.08.64-.05,1.29-.4,1.95l5.36,1.25-2.17,2.21ZM25.53,22.99c-.18-.18-.37-.29-.56-.32-.19-.03-.38-.02-.56.04-.18.06-.36.16-.53.29-.17.13-.33.27-.46.41l-.99,1.01,1.82,1.79.88-.9c.15-.16.3-.33.43-.52.13-.19.23-.38.3-.58.06-.2.08-.4.03-.61-.04-.21-.16-.41-.36-.61Z"/>
          <path class="cls-6" d="M38.25,22.3l-2.13,1.57-9.86-6.36,2.39-1.77,6.67,4.75.05-.04-2.59-7.76,2.36-1.74,3.11,11.34Z"/>
          <path class="cls-6" d="M42.37,19.63l-5.41-9.55,2.32-1.32,5.41,9.55-2.32,1.31Z"/>
          <path class="cls-6" d="M51.47,15.16l-2.45,1.02-8.06-8.53,2.75-1.15,5.34,6.2.06-.02-.66-8.15,2.7-1.13.32,11.76Z"/>
          <path class="cls-6" d="M56.02,13.48l-2.6-10.66,7.17-1.75.53,2.17-4.68,1.14.49,2.02,4.43-1.08.5,2.06-4.43,1.08.54,2.21,4.96-1.21.54,2.2-7.44,1.81Z"/>
          <path class="cls-6" d="M74.71,5.13c.07.96-.05,1.8-.35,2.52-.3.72-.73,1.33-1.28,1.82-.55.49-1.18.87-1.9,1.13-.72.26-1.45.42-2.2.48l-4.08.3-.8-10.95,3.96-.29c.77-.06,1.54-.02,2.31.1.77.13,1.46.38,2.08.75s1.13.9,1.54,1.57c.41.67.66,1.53.73,2.56ZM71.96,5.33c-.05-.62-.18-1.12-.41-1.52-.23-.39-.52-.7-.87-.92-.35-.22-.75-.36-1.18-.43-.44-.07-.88-.09-1.33-.06l-1.31.1.47,6.4,1.25-.09c.47-.03.93-.12,1.36-.26.43-.14.8-.35,1.12-.62.32-.27.56-.62.73-1.05.17-.43.23-.94.19-1.55Z"/>
          <path class="cls-6" d="M85.87,3.05l-1.23,8.62-2.62-.38,1.23-8.62-3.07-.44.32-2.24,8.76,1.25-.32,2.24-3.07-.44Z"/>
          <path class="cls-6" d="M95.22,14.37l1.38-4.38-4.08-1.28-1.38,4.38-2.53-.79,3.29-10.47,2.53.79-1.25,3.96,4.08,1.28,1.25-3.96,2.53.79-3.29,10.47-2.53-.79Z"/>
          <path class="cls-6" d="M99.54,16l4.97-9.78,6.58,3.34-1.01,1.99-4.3-2.18-.94,1.85,4.06,2.07-.96,1.89-4.06-2.07-1.03,2.03,4.55,2.31-1.03,2.02-6.83-3.47Z"/>
          <path class="cls-6" d="M122.01,21.69c-.4.5-.83.84-1.3,1.04-.46.19-.93.27-1.42.22s-.97-.18-1.46-.42-.95-.53-1.39-.89l-1.02-.83-2.6,3.22-2.06-1.67,6.9-8.53,3.13,2.53c.47.38.86.78,1.2,1.2.33.42.56.86.7,1.3.14.45.15.91.06,1.38-.1.47-.34.96-.74,1.44ZM119.94,20.03c.16-.2.26-.4.28-.59.02-.19,0-.38-.08-.56-.08-.18-.19-.36-.35-.52s-.32-.32-.51-.47l-.9-.73-1.63,2.01.87.7c.19.16.39.29.59.4.2.11.41.18.61.22.21.03.4.02.59-.05.19-.07.36-.2.53-.4Z"/>
          <path class="cls-6" d="M122.55,33.36l1.01-2.08-2.87-3.13-2.13.86-1.95-2.13,11.2-4.02,1.74,1.9-5.02,10.77-1.99-2.17ZM126.5,25.75l-3.72,1.51,1.86,2.03,1.86-3.55Z"/>
          <path class="cls-6" d="M134.76,36.51c.12-.35.14-.72.08-1.12-.06-.4-.18-.74-.37-1.03-.1-.15-.21-.29-.33-.42-.13-.13-.26-.24-.42-.31-.15-.07-.31-.11-.49-.12-.17,0-.35.05-.53.17-.16.1-.26.22-.32.35-.06.13-.09.29-.08.46,0,.18.03.37.08.59.05.22.11.45.18.71.1.38.2.78.3,1.2.1.42.13.83.11,1.25-.02.41-.13.81-.32,1.19-.19.38-.51.73-.97,1.03-.53.35-1.05.55-1.56.61-.51.06-1,0-1.47-.15-.47-.16-.9-.42-1.3-.76-.4-.34-.75-.74-1.04-1.19-.43-.66-.74-1.36-.91-2.13-.18-.76-.19-1.49-.03-2.17l2.43.48c-.13.41-.16.85-.11,1.34.06.49.2.91.44,1.28.11.16.23.31.37.44.14.13.28.23.44.3.15.07.32.09.49.07.17-.02.35-.08.53-.2.17-.11.29-.25.35-.42.06-.17.09-.36.09-.59,0-.22-.05-.48-.12-.77-.07-.29-.16-.62-.27-.98-.1-.36-.18-.72-.23-1.08-.06-.37-.05-.73,0-1.08s.19-.69.39-1.02c.2-.32.51-.62.92-.9.51-.34,1.01-.52,1.51-.55s.98.04,1.43.23c.45.18.88.45,1.26.8s.72.74,1.01,1.17c.34.52.59,1.11.76,1.77.17.66.2,1.32.09,1.97l-2.42-.43Z"/>
          <path class="cls-6" d="M139.36,43.97l-7.86,3.75-1.14-2.39,7.86-3.75-1.34-2.8,2.04-.98,3.81,7.99-2.04.98-1.34-2.8Z"/>
        </g>
      </g>
      <g>
        <path class="cls-6" d="M107.01,101.92c-1.83-6.15-5.61-15-11.16-17.88-.52-.3-.66-.66-.31-1.15,8.99-9.55,10.14-23.76,6.55-35.74-1.3-8-7.04-14.72-13.49-19.24-6.72-4.47-14.76-3.82-22.04-1.62-2.51.88-5.02,2.18-7.07,3.17-.87.32-1.8,1.49-2.62.53-.48-.6-1.4-.91-2.2-.77-4.49,1.04-7.08,4.94-8.43,8.8-.51,1.8-.25,3.03.33,4.94.24.66.34,1.35.08,2.02-1.24,3.08-2.33,6.67-1.83,9.93.2,1.1-.16,2.1-.36,3.25-1.74,8.08,1.22,16.09,4.66,23.35.76,1.52-1.61,2.38-2.27,3.61-3.14,4.08-5.08,9.23-4.94,14.34.7,3.34,3.73,5.6,6.51,6.98,1.32.84,3.46,1.09,4.69,2.18.65,2.24.52,4.9.89,7.14.19,1.36-.07,2.56.12,3.91.25,1.63,2.45,2.55,3.61,1.23.73-.77.69-1.98.9-2.73.84-2.11.4-4.24.33-6.42-.05-.62,0-1.36.83-1.14,3.07.91,6.67,1.31,9.82,1.59.27.07.43.22.47.46-.03,1.11-.52,2.52-.69,3.76-.39,1.66-.3,2.95.03,4.35.08.98.05,2.34.95,3.04.83.73,2.3.55,2.94-.34.92-1.59.59-3.83,1.2-5.51.41-1.33,1.01-2.83,1.34-4.46.13-.81.75-1.18,1.55-1.12,8.23-.26,15.3.26,22.32-2.84,2.95-1.22,7.39-3.56,7.29-7.42l-.02-.18Z"/>
        <g>
          <path class="cls-4" d="M70.89,66.5s-.06.06-.09.1c0,0-.01.02-.02.02-.11.11-.21.23-.32.34-.06.06-.12.12-.18.18-.59.56-1.24,1.07-1.93,1.5-2.36,1.49-5.23,2.21-7.98,2.03-1.95-.1-3.92-.46-5.69-1.29-.6-.27-1.07-.59-1.65-.81-.03,0-.06,0-.09,0-.37-.01-.62-.49-.28-.75.18-.09.38-.09.58-.04.5.12,1.01.55,1.42.7.74.36,1.48.66,2.26.86,4.68,1.22,7.69.34,11.31-1.45.59-.29,1.2-.61,1.83-.95.07-.04.14-.08.21-.11.16-.09.33-.18.5-.27,0,0,0,0,0,0,.03-.02.07-.04.11-.06Z"/>
          <path class="cls-4" d="M62.1,74.54c-2.27-.13-4.41-1.08-6.3-2.28-.99-.59-1.84-1.45-2.95-1.81-.25-.18-.19-.6.09-.72.9-.09,2.02,1.07,2.78,1.51,3.57,2.54,8.09,3.59,11.89.9,1.08-.77,2.01-1.72,3.05-2.54.43-.35.85-.72,1.27-1.06-.66,1.17-1.5,2.25-2.49,3.16-1.96,1.85-4.64,3.01-7.35,2.84Z"/>
          <path class="cls-4" d="M72.79,71.87c.15-2.06-.95-4-2.64-5.13-.22-.18-.61-.23-.61-.58.25-1.1,1.62.37,2.03.71,1.44,1.19,2.01,3.29,1.22,5.01Z"/>
          <path class="cls-4" d="M53.18,71.87c-1.2-1.45-1.51-3.74-.16-5.19.32-.3.85.13.61.51,0,0,0,0,0,0-1.08,1.31-.93,3.16-.45,4.68Z"/>
          <path class="cls-4" d="M60.91,76.47c-.53-.1-2.01-.33-2.07-.94,0-.22.18-.41.41-.41,1.55.63,3.26.95,4.93.89.08,0,.16-.02.24-.03-1.07.56-2.33.61-3.5.49Z"/>
          <path class="cls-4" d="M59.87,64.8c-1.22-.42-1.91-1.9-1.51-3.12.23-.75.83-1.28,1.39-1.78,1.47-1.38,2.91-3.01,3.31-5.04.07-.35.12-.7.14-1.05,0-.31,0-.74.42-.74.78.06.25,1.59.21,2.09-.49,2.27-2.15,4.08-3.82,5.61-.91.67-1.25,1.92-.72,2.93.24.41.57.99,1.11.97.09,0,.2-.03.28-.06-.21.19-.52.28-.8.18Z"/>
          <path class="cls-4" d="M74.94,58.25c-.02-1.99-2.42-2.04-3.92-2.21-.97-.09-1.94.04-2.89.12.68-.3,1.35-.63,2.08-.74,1.68-.27,4.33-.06,5.25,1.59.19.41.51,1.37-.17,1.46-.14,0-.28-.08-.35-.2Z"/>
          <path class="cls-4" d="M50.97,56.31c.12-.7.73-1.25,1.25-1.7,1.33-.76,3.26-.52,4.57.18-.38-.09-.78-.09-1.18-.07-1.03.09-2.18.05-3.05.65-.31.27-.57.6-.78.95-.02.51-.82.49-.81-.02Z"/>
          <path class="cls-4" d="M76.68,50.08c-.24-.23-.27-.6-.44-.88-.43-.84-1.2-1.49-2.11-1.76-.74-.26-1.53-.4-2.32-.36-.98.1-2.43.18-2.82-.95-.33-1.61,1.91-1.87,3.01-1.42,1.55.45,3.08,1.11,4.1,2.42.44.4,2.18,3.46.57,2.95ZM72.1,45.61s0,0,0,0c-.02,0-.04,0-.07-.01,0,0-.01,0-.02,0,0,0,0,0,0,0,.03,0,.05,0,.08,0Z"/>
          <path class="cls-4" d="M52.87,49.84c-.86-.39.13-1.21.62-1.42.53-.36,1.06-.73,1.61-1.05,1.34-.72,2.9-1.39,4.45-1.15.37.05.74.21,1.04.44.01.04.03.08.05.11.04.06.07.13.1.2.04.08.09.15.14.22.02.02.04.05.06.07.01.02.02.04.03.07.02.05.04.11.06.16.01.03.03.06.04.08,0,.03,0,.07,0,.1,0,.06,0,.12-.02.19,0,.01,0,.03,0,.04,0,.02-.01.05-.02.07,0,.02-.02.05-.03.07,0-.02.02-.04.03-.06-.03.08-.06.16-.09.24-.05.07-.11.13-.16.2.01-.02.03-.03.04-.05-.02.03-.05.06-.08.09,0,0-.01.01-.02.02-.09.04-.18.07-.27.11,0,0,.01,0,.02,0,0,0-.02,0-.03.01-.03,0-.06,0-.09.01-.06.01-.12.03-.19.05-.05.01-.09.02-.14.04-.03.01-.07.02-.1.03,0,0-.01,0-.02,0-.08,0-.16.01-.23.02,0,0,.01,0,.02,0-.05,0-.11.01-.16.02-.09-.02-.18-.04-.27-.06-.11-.03-.22-.07-.33-.1-.15-.05-.28-.11-.44-.13-.11-.02-.23-.02-.34-.02-.05,0-.09-.01-.14-.02-.13-.03-.26-.07-.39-.09-.13-.02-.26-.01-.39-.01-.09,0-.17,0-.26.01-.09,0-.18.02-.28.04-.05,0-.1,0-.15,0-.1,0-.19.03-.28.08h-.06s-.05,0-.08,0c-.16,0-.29.04-.42.11,0,0,0,0,0,0,0,0,0,0,.01,0,0,0-.01,0-.02,0-.04.02-.09.03-.13.06-.04.02-.07.04-.11.06-.44.06-.83.27-1.3.6-.36.22-.72.6-1.15.6-.04,0-.09,0-.13-.01ZM57.7,47.15s.09,0,.13,0c.03-.02.07-.05.11-.06-.08.02-.16.04-.24.06Z"/>
          <path class="cls-4" d="M59.23,48.68s.02,0,.03,0c0,0-.02,0-.03,0Z"/>
          <path class="cls-4" d="M55.69,48.54s0,0,0,0c0,0-.02,0-.03.02,0,0,.02,0,.02-.01Z"/>
          <path class="cls-4" d="M61.05,47.89s0,0,0,.01c0,0,0,0,0-.01Z"/>
          <path class="cls-4" d="M61.08,47.67s0,.03,0,.04c0-.01,0-.03,0-.04Z"/>
          <path class="cls-4" d="M57.65,47.22c-.18-.64,1.21-.76,1.63-.73.52.07.42.87-.11.8-.5-.12-1.25.6-1.52-.07Z"/>
          <path class="cls-4" d="M70.03,66.77c0-.22.18-.41.41-.41s.41.18.41.41-.18.41-.41.41-.41-.18-.41-.41Z"/>
          <path class="cls-4" d="M68.07,68.45c-.24-.45.32-.64.61-.84.5-.34,1.01-.7,1.34-1.23.29-.49,1.02-.02.68.45-.36.57-.88.99-1.43,1.36-.34.2-.86.75-1.19.26Z"/>
          <path class="cls-4" d="M71.66,68.18c.22-.56,1.05-.14.72.4-.07.13-.15.25-.23.37-.52.77-1.2,1.41-1.86,2.06-.07.07-.16.11-.25.12-.12,0-.24-.03-.33-.12-.21-.25-.1-.47.09-.68.18-.19.43-.36.56-.53.47-.47.94-1.01,1.29-1.57,0-.02.01-.04.02-.05Z"/>
          <path class="cls-4" d="M52.42,70.18c-.34-.76,1-.87.87-.1-.1.36-.69.43-.87.1,0,0,0,0,0,0Z"/>
          <path class="cls-4" d="M84.64,62.83c-.21-.44-.46-.88-.86-1.17-.2-.12-.49-.19-.48-.49.1-.76.96-.26,1.26.09.36.35.62.8.83,1.25.21.48-.54.8-.75.32Z"/>
          <path class="cls-4" d="M85.55,61.49c-.4-.82-.97-1.5-1.63-2.1-.24-.16-.46-.47-.25-.75.17-.23.55-.2.68.05.77.67,1.45,1.46,1.91,2.39.27.45-.44.87-.7.41Z"/>
          <path class="cls-4" d="M87.53,60.08c.15.32-.22.68-.53.53-.15-.06-.22-.22-.28-.35-.56-1.04-1.06-2.16-1.95-2.96-.19-.16-.39-.33-.63-.42-.13-.03-.25-.15-.28-.28-.04-1.02,1.16-.23,1.5.14.59.53,1.02,1.2,1.4,1.88.27.49.53.97.77,1.46Z"/>
          <path class="cls-4" d="M88.71,59.13c.21.48-.54.8-.75.32-.75-1.87-1.55-4.03-3.32-5.14-.17-.09-.35-.15-.54-.2-.38-.14-.31-.73.1-.78,2.08.35,3.33,3.01,4.1,4.76.14.35.26.7.41,1.04Z"/>
          <path class="cls-4" d="M101.22,94.11c-1.11-2.34-2.46-4.65-4.41-6.38-1.49-1.46-3.45-2.09-5.31-2.9-1.11,1.09-2.26,2.14-3.42,3.18-2.36,2.06-4.77,4.12-6.78,6.53.76-2.35,2.68-4.13,4.54-5.62,1.76-1.53,3.48-3.1,5.14-4.73.04-.13.14-.23.27-.27.95-.95,1.88-1.92,2.78-2.91,5.17-5.66,7.52-13.41,7.61-20.97.02-4.64-1.31-9.12-2.26-13.63-.39-1.65-.83-3.3-1.59-4.82-.77-1.45-1.78-2.75-2.77-4.06-1.59-1.99-3.28-3.91-5.18-5.6-4.32-3.71-10.24-5.71-15.9-4.59-2.26.28-4.51.73-6.7,1.36-2.17.83-4.26,1.88-6.36,2.88-2.35,1.13-4.37,2.82-6.03,4.81-.04.1-.1.17-.17.21.1.14.21.29.33.43.53-.63,1.3-1.08,1.92-1.62,1.43-1.12,2.89-2.29,4.67-2.77,2.99-.75,6.07-1.2,9.13-1.49,2.45-.05,4.85.62,7.14,1.45,4.7,2.13,8.95,5.4,11.99,9.59,1.08,1.72,1.54,3.72,1.95,5.68.29,1.52.59,3.04.62,4.6.18,3.27-.04,6.56-.65,9.77-.54,2.61-1.29,5.17-1.87,7.76-1.7,8.46-2.55,9.52-7.52,16.47-1.97,2.74-4.52,4.97-7.29,6.87-3,2.26-6.02,4.63-8.28,7.65,1.32-4.93,8.98-8.4,12.45-12.08,1.7-1.75,3.09-3.72,4.44-5.74.99-1.47,2.06-2.9,2.84-4.5,1.25-2.4,1.69-5.1,2.31-7.71,1.21-5.42,2.97-10.78,2.81-16.4-.05-3.83-.56-7.77-2.13-11.29-1.89-3.1-4.76-5.51-7.71-7.57-3.32-2.18-7.2-3.82-11.23-3.73-3.11.36-6.27.73-9.29,1.62-2.08.78-3.75,2.39-5.45,3.73-.13.1-.23.23-.36.32.03.04.07.07.1.1.06-.02.12-.02.2,0,1.88-.99,3.56-2.38,5.57-3.13,3.39-1.26,7.13-1.51,10.7-1.08,2.63.46,5.22,1.3,7.64,2.43,2.73,1.25,4.87,3.42,6.73,5.74,1.7,2.07,3.36,4.37,3.75,7.08.67,3.85-.23,7.72-.66,11.55-.25,2.15-.4,4.32-.74,6.46-.28,1.87-.8,3.69-1.18,5.53-.42,2.72-1.76,5.15-3.12,7.51-1.19,2.04-2.87,3.71-4.47,5.41-1.59,1.63-3.13,3.31-4.83,4.82-.13.1-.27.2-.4.31-.06.06-.13.12-.22.18-2.45,2-5.36,5.11-8.47,5-2.53-.03-3.78-2.43-5.2-4.15-1.37-1.47-2.73-2.96-3.93-4.58-1.1-1.6-2.06-3.29-3-4.98-.76-1.38-1.27-2.87-1.72-4.37-.97-1.52-1.72-3.2-2.2-4.96-.63-1.87-1.4-3.67-1.76-5.61-.39-2.43-.55-4.87-.23-7.31.46-4.21,2.08-8.17,4.21-11.79.26-.49.51-.98.75-1.47.07.02.14.02.21.03.06,0,.13.01.19.01.03,0,.06,0,.09,0,.06,0,.11-.02.17-.02-.02,0-.04,0-.06,0,.05,0,.1,0,.15,0h0s0,0,0,0c0,0,0,0,0,0,.04,0,.09,0,.13-.02.01,0,.02,0,.03,0-.4.87-.82,1.67-1.28,2.5-.98,1.73-1.85,3.53-2.53,5.4-1.93,5.5-1.93,11.64.34,17.03.73,2.19,1.49,4.46,2.8,6.34,1.91,2.69,4.56,4.91,7.68,6.02,2.84.98,5.94,1.12,8.83.32-1.33.93-2.98,1.49-4.62,1.32-1.85-.07-3.62-.49-5.26-1.19-.68.38.19,1.84.65,2.15-.07-.03-.14-.07-.21-.12.16.15.32.3.49.45,0,0,0,0,0,0t0,0c-.46-.28-.92-.57-1.37-.86-.5-.32-.99-.64-1.47-.97-.07-.05-.14-.1-.21-.14-.02,0-.03-.02-.05-.03-.1-.05-.2-.1-.3-.14-.41-.11-.83-.23-1.24-.35.36.6.73,1.19,1.1,1.78,1.02,1.5,2.23,2.82,3.43,4.15.07.02.13.05.2.11,1.25.83,2.7,1.21,4.17,1.42,2.45.41,5-.15,7.34-.86.44-.16.87-.33,1.24-.51.2-.07.44-.27.66-.38,2.3-2.04,4.44-4.27,6.52-6.54,0-.02-.01-.03-.02-.05-.07-.24-.13-.48-.2-.72-.03-.11-.06-.23-.09-.34-.03-.11-.06-.22-.09-.33-.08-.12-.18-.23-.27-.34-.11-.14-.21-.28-.32-.41-.14-.18-.34-.38-.31-.62.01-.11.08-.21.12-.31.04-.08.07-.16.11-.24.06-.13.12-.26.18-.39,0-.03.01-.06.02-.08.05-.13.11-.25.16-.38,0-.01,0-.02.01-.03-1.29.78-2.73,1.34-4.29,1.6,4.28-2.59,6.44-3.28,8.95-7.85-.71-.43-1.37-1.13-.92-1.6.54-.36.65.45,1.02.66.47.49,1.34.77,1.92.47.7-2.99,1.31-5.99,1.62-9.05-.06.03-.11.05-.16.07-.5.18-.85.73-1.37.79-.22-.03-.38-.24-.35-.46.1-.36.52-.51.79-.73.31-.16.81-.59,1.16-.48.02-.24.04-.48.05-.72.13-1.44.34-2.88.55-4.33-.76-1.61-.83-3.01-2.57-4.18-.7-.52-1.58-.69-2.3-1.16-1.22-.93-.47-2.76.62-3.47.96-.54,1.73-1.5,1.43-2.66-.62-2.54-2.94-2.38-5.14-2.22-.87.06-1.72.12-2.44.02-3.39-.36-3.39-3.62-5.98-4.82-2.29-.76-4.1,1.51-6.32,1.65-.98.05-1.73-.22-2.39-.49-1.45-.6-2.43-1.2-4.35,1.66-.79,1.31-1.92,2.59-3.26,3.46.03-.02.05-.05.08-.07-.01,0-.02.02-.03.03.08-.08.17-.14.26-.21.11-.09.2-.19.29-.29.13-.14.24-.3.35-.46.13-.19.23-.39.35-.58.02-.03.04-.06.06-.09,0,.01-.02.03-.03.04,0,0,0,0,0,0,0,0,0,0,0,0,0,0,0,0,0,.01,0,0,0,0,0-.01,0,0,0,0,0,0,0,0,0,0,0,0,0,0,0,0,0,0,0,0,0,0,0,0,.07-.1.14-.2.21-.3,0,0,0,0,0,.01,0,0,.01-.02.02-.03,0-.01.01-.02.02-.03,0,0-.01.02-.02.03.07-.11.14-.22.2-.34.04-.08.08-.17.11-.25.03-.07.07-.15.09-.23.01-.03.02-.05.03-.08.01-.03.02-.05.03-.08.09-.14.19-.28.27-.43,0,0,0,0,0-.01,0,0,0,0,0,0,0,0,0,0,0,0,0,0,0,0,0,0,0,0,0,0,0,0,0,0,0,0,0,0,0,0,0,0,0,0,0,0,0,0,0,0,0,0,0,0,0,0,0,0,0,0,0,0,0,0,0,0,0,0,0,0,0,0,0,0,0,0,0,0,0,0,0,.01-.01.02-.02.03,0,0,0,0,0,0,0,0,0,0,0,0,0,0,0,0,0,.01h0s0,0,0,0c0,0,0,0,0,0,.08-.15.18-.28.28-.42.06-.08.12-.15.18-.23.06-.09.12-.19.18-.28-.01.02-.02.04-.03.06.09-.16.18-.31.27-.47.02-.03.03-.05.05-.08.11-.14.23-.28.36-.42,1.74-1.81,2.95-1.29,4.25-.76.95.38,1.94.77,3.21.24,1.91-.78,4.02-2.33,6.09-1.11,2.33,1.34,2.57,4.51,5.69,4.59.61.03,1.28-.02,1.95-.07.55-.04,1.1-.08,1.65-.08,1.57,0,3.03.32,3.86,1.87.33.54.5,1.19.48,1.83.47-.11.99-.11,1.47,0-1.3-2.84-3.86-5.59-5.94-7.56-1.85-1.66-4.16-2.65-6.48-3.42-3.38-1.25-7.05-1.59-10.6-1.03-1.69.24-3.37.63-4.9,1.4-.78.39-1.54.84-2.27,1.31-.38.19-1.21.84-1.91,1.2-.07.12-.24.23-.53.23-.02,0-.04,0-.06,0-.17.03-.31.02-.42-.05-.05-.03-.09-.08-.12-.12-.52-.29-.93-.86-1.34-1.25-1.84-2.07-1.03-3.69.74-5.41-2.52.93-4.42,3.09-5.52,5.46-.5,1.03-1.07,2.31-.83,3.45,0,.19,0,.39.01.58.02.18.05.35.1.52,0,0,0-.01,0-.02,0,.01,0,.03.01.04,0,0,0-.02,0-.02,0,.03.02.06.03.1,0,0,0,.01,0,.02,0,0,0,0,0-.01,0,0,0,0,0,.01,0,0,0,0,0,0,0,0,0,0,0,0,0,0,0,.01,0,.02.04.14.09.27.13.41,0-.02-.01-.04-.02-.06.03.09.06.19.09.28.04.12.08.25.13.37-.41-.46-.74-.89-.94-1.21-1.32-2.36,1-5.88,2.4-7.76.92-1.08,3.69-3.43,5.17-3,1.3,1.31-3.04,2.59-1.35,5.08.56-.82,1.36-1.47,2.05-2.18,1.23-1.21,2.73-2.14,4.27-2.92,2.37-1.11,4.7-2.36,7.21-3.15,2.02-.48,4.04-.94,6.1-1.17,5.82-1.15,11.92.87,16.4,4.64,2.91,2.58,5.43,5.61,7.6,8.83,1.42,2.14,2.01,4.68,2.57,7.15.88,4.23,2.09,8.44,2.06,12.79-.09,6.96-1.97,13.99-6.18,19.6-1.29,1.64-2.7,3.18-4.17,4.66.94.41,1.91.74,2.82,1.2,3.44,1.82,5.63,5.24,7.18,8.7,1.26,2.79,2.89,5.52,3.03,8.64-1.33-2.88-2.55-5.8-3.92-8.66ZM84.51,50.17c-.5,1.52,1.48,1.42,2.33,2.15,1.03.65,1.84,1.62,2.3,2.75.07.18.14.37.21.56.16-1.33.28-2.66.28-3.99-1.08-1.15-2.08-2.34-3.79-2.59-.08-.03-.14-.08-.18-.13-.47.34-.95.69-1.14,1.25ZM86.38,48.35c.92.22,1.78.7,2.47,1.34.12.12.43.39.73.7-.05-.66-.13-1.32-.27-1.98-.07-.32-.16-.65-.27-.98-.02,0-.04-.02-.06-.03-.4-.26-.9-.25-1.35-.23-.2,0-.38.06-.58.08h-.02c-.13.41-.34.79-.64,1.1Z"/>
          <path class="cls-4" d="M57.79,43.37s-.02.03-.03.05c0,0,0,0,0,0,.01-.02.02-.03.03-.05Z"/>
          <path class="cls-4" d="M59.09,93.53c-1.86-3.06-4.2-5.78-6.26-8.7-.17-.25-.33-.5-.48-.75-1.79.41-3.13,1.94-4.16,3.38-.99,1.48-1.91,3.06-2.49,4.72-.62,1.92-1.17,3.88-1.9,5.76-.02-3.68,1.32-7.28,3.31-10.33,1.15-1.73,2.7-3.73,4.8-4.24-1.26-2.16-2.26-4.48-3.19-6.8-1.65-3.67-2.72-7.61-3.09-11.63-.19-2.77.2-5.55.84-8.24.09-.41.18-.82.28-1.22-.11-.13-.18-.28-.24-.43-.05-.15-.09-.3-.12-.45-.06-.34-.08-.69-.08-1.03,0-.87.11-1.73.27-2.58.07-.36.14-.72.22-1.07,0-.05.02-.1.04-.15.01-.06.03-.11.04-.17.04-.16.08-.32.12-.48.13-.48.27-.96.43-1.44.15-.46.32-.93.5-1.38.22-.56.5-1.1.82-1.61.09-.14.18-.28.28-.41,0,0,0,0,0-.01,0,0,0,0,0,0,.14-.19.28-.37.43-.55.02.02.03.04.05.06.02.03.04.05.05.08,0,0-.01-.02-.02-.03.04.07.09.13.13.2,0,0,.01.02.02.03-.36.76-.64,1.57-.95,2.35-.07.18-.14.36-.21.53,0,0,0,.02,0,.03h0c-.34.92-.63,1.86-.87,2.81-.03.1-.05.2-.07.31,0,0,0,.01,0,.02,0,0,0,0,0,0,0,0,0,0,0,0,0,0,0,.02,0,.03h0s0,0,0,0c0,0,0,0,0,0,0,0,0,0,0,0,0,0,0,0,0,0-.18.8-.33,1.61-.41,2.39,0,.02,0,.03,0,.05h0c-.04.41-.06.82-.05,1.23,0,.06,0,.11,0,.17.39-1.44.85-2.85,1.48-4.21.5-1.19,1.09-2.33,1.75-3.44.14-.21.34-.61.57-.94.12.11.27.2.41.28.1.06.19.11.29.16-.34.48-.62.99-.91,1.5-.91,1.59-1.63,3.27-2.25,4.99-1.21,4.05-2.28,8.28-2.04,12.52.36,3.92,1.38,7.75,2.99,11.33,1.11,2.78,2.31,5.53,3.94,8.04,3.01,4.55,9.34,10.65,8.52,16.4-.56-2.46-1.54-4.86-2.8-7.05Z"/>
          <path class="cls-4" d="M53.01,47.11c-3.37-.6-5.58-4.16-5.27-7.46.03-.58.46-3.06,1.33-2.05,0,.02-.02.04-.02.06,0,0,0-.02,0-.03-.02.07-.04.14-.06.21-.03.07-.06.13-.08.2,0-.02.02-.04.03-.06-.04.11-.08.21-.11.32-.02.08-.05.17-.05.25-.06.18-.1.37-.14.56-.06.3-.09.61-.1.91-.04.15-.08.3-.08.45-.01.24-.02.47,0,.71.02.19.05.37.1.55,0-.01,0-.03-.01-.04.01.04.02.08.03.11,0,0,0,.01,0,.02h0s0,0,0,0c0,0,0,0,0,.02,0,0,0,0,0,0,0,0,0,0,0,0,.04.13.08.26.12.39,0,0,0,0,0,0,.03.08.05.16.08.24.04.13.08.26.13.38.05.11.1.22.17.32.05.07.1.13.15.2.05.07.1.14.16.21t0,0s0,0,0,0c.04.06.08.11.13.17.02.02.03.04.04.06,0,0,0,0,0-.01.04.07.09.13.13.2.1.16.21.32.34.46.09.09.18.18.28.26.15.15.3.3.46.43.12.22.35.36.57.49.14.08.29.16.43.23.05.02.1.05.16.07.1.06.21.12.33.14.36.15.72.23,1.08.25.03,0,.06,0,.09,0,0,0,.02,0,.02,0,.46,0,.9-.1,1.32-.27.06,0,.11-.02.17-.04.1-.03.2-.06.3-.1.13-.05.24-.14.35-.21.11-.07.22-.13.32-.21.06-.05.12-.11.19-.15-.02.01-.04.02-.05.04.08-.05.14-.1.21-.16.04-.04.08-.08.12-.11.05-.04.09-.08.14-.12-.02.01-.03.03-.05.04.08-.08.17-.14.26-.21.11-.09.2-.19.29-.29.13-.14.24-.3.35-.46.1-.14.18-.28.26-.43.08-.12.16-.25.24-.38.03-.05.06-.09.1-.14,0,0,0,0,0,.01,0,0,.01-.02.02-.03,0,0,.01-.02.02-.02,0,0,0,0,0,0,0,0,0,0,0,0,0,0,0,0,0,0,0,0,0,0,0,0,0,0,0,.01-.01.02.07-.11.14-.21.2-.32,0,0,0,0,0,0,0,.01-.02.03-.02.04,0-.01.02-.03.02-.04,0,0,0,0,0,.01,0,0,0-.02.01-.03,0,0,0,0,0,0,0,0,0,0,0,0,0,0,0,0,0-.01,0,0,0,0,0,.01.04-.08.08-.16.11-.24.02-.06.05-.11.07-.17.05-.11.1-.21.15-.32.07-.1.13-.2.19-.3,0,0,0,.01,0,.02,0,0,0,0,0-.01,0,0,0,0,0,.01,0,0,0,0,0,0,0,0,0,0,0,0h0s0,0,0,0c0,0,0,0,0,0,0,0,0,0,0,0,0,0,0,0,0,0h0s0,0,0,0c.08-.14.17-.28.27-.41.06-.08.12-.15.18-.23.06-.09.12-.19.18-.28-.01.02-.02.04-.03.06.09-.16.18-.31.27-.47.02-.03.04-.07.06-.1.03,0,.05.01.07.02.2.09.3.33.22.53-.31.74-.62,1.48-1,2.18-1,1.97-3.04,4.11-5.38,4.11-.17,0-.34-.01-.52-.03Z"/>
          <path class="cls-4" d="M48.72,42.24s0,.01,0,.02c0,0,0-.01,0-.02Z"/>
          <path class="cls-4" d="M58.71,41.72s0-.01.01-.02c0,0,0,0,0,0,0,0,0,0,0,0,0,.01-.01.02-.02.03,0,0,0,0,0,0Z"/>
          <path class="cls-4" d="M58.72,41.71s0,0,0,.01c0,0,0,0,0,0,0,0,0-.01,0-.02Z"/>
          <path class="cls-4" d="M48.7,42.19s0,.02.01.03c0-.01,0-.02-.01-.03Z"/>
          <path class="cls-4" d="M43.55,98.28c.04-1.26.36-2.49.59-3.73.07-.34.58-.4.74-.1.06.1.06.2.05.28-.06.35-.15.8-.23,1.12-.14.8-.31,1.61-.34,2.43,0,.53-.81.53-.81,0Z"/>
          <path class="cls-4" d="M104.67,102.61c-.26-1.25-.75-2.41-1.2-3.59-.1-.18-.08-.42.09-.55.39-.26.65.1.73.45.17.47.37.92.54,1.38.24.6.4,1.22.55,1.85.1.28.13.65-.22.75-.21.06-.44-.07-.5-.28Z"/>
          <path class="cls-4" d="M77.37,110.83c-5.02-.09-10.09-.08-15.02-1.18-1.79-.37-3.51-1.01-5.24-1.61-2.4-.81-4.82-1.57-7.14-2.57-2.52-1.17-5.18-2.81-6.26-5.49-1.01-2.79,1.04-2.43.54-1.52-.01,1.53,1.02,2.84,2.11,3.82,2.65,2.32,6.09,3.33,9.36,4.45,1.96.62,3.8,1.37,5.77,1.89,1.5.38,3.03.65,4.56.85,6.69.73,13.52.64,20.23.33,4.12-.37,8.38-.42,12.17-2.29,2.11-.92,4.39-1.86,5.73-3.84.19-.27.33-.58.44-.89.06-.3.2-.69.58-.58.95.36-.75,2.54-1.18,2.92-1.48,1.58-3.55,2.37-5.48,3.23-1.64.72-3.34,1.32-5.12,1.56-5.32.71-10.7.94-16.07.92Z"/>
          <path class="cls-4" d="M76.55,90.87c-1.24-.47-1.01-2.21.03-2.77.37-.25,1.2-.36,1.26.24,0,.4-.4.42-.69.39-.75.21-.94,1.51.04,1.45.54-.07.5-.73.53-1.12,1.34-1.24,1.01,2.73-1.17,1.82Z"/>
          <path class="cls-4" d="M77.83,90.49c-.63-.51,1.13-1.35-.82-2.17-.1-.1-.15-.26-.1-.4.29-.67,1.18-.01,1.49.34.55.52.48,2.65-.57,2.23Z"/>
          <path class="cls-4" d="M71.01,119.61c-.83.06.18-3.67.22-4.23.66-3.14,1.63-6.3,1.81-9.5.18-6.58.22-11.61,3.98-17.37.36-.68,1.26-.06.65.49-4.84,7.48-2.97,12.59-4.28,20.48-.53,2.68-1.31,5.31-1.71,8-.21.53.08,2.21-.67,2.14Z"/>
          <path class="cls-4" d="M71.11,119.9c-.06-.22.07-.44.28-.5.59.04.43-.25.53-.7.11-.69.26-1.34.48-2,2.33-5.68,1.94-11.93,2.54-17.91.22-2.4.54-4.82,1.41-7.08.45-.97,1.06-2.4,1.95-2.98.46-.07.64.62.2.78.04-.01.08-.04.12-.07-2.62,3.27-2.7,7.74-3.06,11.71-.37,5.38-.34,10.82-2.42,15.87-.46.9-.16,2.57-1.05,3.08-.32.12-.86.18-.99-.22Z"/>
          <path class="cls-4" d="M71.34,122.53c-.55-.17.06-1.93-.5-3.15-.03-.3.29-.55.57-.43.33.19.31.7.44,1.03.75.11.26,1.15.25,1.64-.07.39-.21,1.1-.76.9Z"/>
          <path class="cls-4" d="M56.45,89.24c-1.27-.62-1.23-3.48.53-3.06.71.23.26,1.26-.33.75-1.01.8.89,2.89.55.52-.27-.45.44-.87.7-.41.56.91-.2,2.91-1.45,2.2Z"/>
          <path class="cls-4" d="M55.71,116.8c-.21-3.9-1.2-7.78-.43-11.69.77-5.5,3-11.15,1.06-16.63-.5-.69.64-1.41.99.36,1.81,6.23-1.08,12.44-1.49,18.64-.21,2.39.27,4.76.52,7.12-.05.59.56,2.57-.24,2.6-.23,0-.4-.18-.41-.41Z"/>
          <path class="cls-4" d="M56.08,117.53c-.13-.18-.1-.43.07-.57.12-.09.27-.11.41-.05.53-.96.16-2.2.16-3.23-.17-2.82-.26-5.66-.03-8.49.19-3.43,1.22-6.77,1.63-10.13.19-2.4-.53-4.74-1.27-6.99-.45-.94,1.01-1.16.78-.21.77,2.31,1.49,4.73,1.3,7.18-.12,1.77-.62,3.54-.97,5.25-.35,1.84-.55,3.75-.72,5.61-.15,2.5-.08,5,.07,7.5.03,1.2.35,2.48-.09,3.64-.17.54-.9,1.11-1.34.5Z"/>
          <path class="cls-4" d="M56.4,120.04c-.51-.09-.35-.73-.4-1.1.02-.36-.22-.91.2-1.1.1-.4-.03-1.01.38-1.24.31-.15.68.2.54.52-.26.65.1,3.05-.72,2.92Z"/>
          <path class="cls-4" d="M55.97,120.01c-.65-.42-.16-1.61-.26-2.3,0-.26-.04-.52,0-.78.04-.33.46-.49.69-.25.11.1.15.28.1.42.03.72,0,1.43-.07,2.15.68.26.09,1.12-.47.76Z"/>
          <path class="cls-4" d="M71.65,122.8c-.51-.04-.67-.72-.13-.85.03-.56.04-1.13.08-1.69.04-.36-.09-.96.43-.98.22,0,.41.18.41.41-.01.64-.07,1.29-.09,1.93.01.47-.05,1.24-.7,1.18Z"/>
          <path class="cls-4" d="M57.37,89.96c-.25-.16-.24-.5-.35-.75-.14-.4-.3-.8-.42-1.21-.22-.1-.35-.41-.41-.63,0-.22-.07-.48.11-.65.22-.23.63-.14.71.17.34.05.49.46.35.75.15.64.43,1.23.62,1.86.11.33-.3.65-.6.46Z"/>
          <path class="cls-4" d="M75.74,92.4c-.36-.29,0-.66.15-.95.31-.65.57-1.33,1.02-1.9-.17-.45.65-1.05,1.05-1,.47.05.54.73.09.86-.34.43-.7.86-.96,1.36-.28.42-.68,2.11-1.36,1.63Z"/>
          <path class="cls-4" d="M71.17,119.61c.18-2.36.9-4.67,1.52-6.94.17-1.37.4-2.74.65-4.1.2-1.74.4-3.47.35-5.22.09-.71-.26-3.05.37-3.32.05-1.15.23-2.28.38-3.41.15-.7.12-1.56.6-2.13.36-1.34.87-2.63,1.39-3.91.24-.44.93-.07.72.36-.84,2.08-1.65,4.23-1.83,6.49-.1.67.15,2.49-.38,2.87-.11,1.75-.18,3.51-.36,5.25.44.21-.02,2.09-.02,2.6-.26,2.73-1.18,5.32-1.82,7.97-.24.99-.48,1.98-.69,2.98-.07.3-.05.77-.45.82-.2.02-.39-.1-.45-.29Z"/>
          <path class="cls-4" d="M55.98,117c-.15-4.63-.61-9.35.09-13.96.47-2.53,1.5-4.98,1.63-7.56.12-1.47-.21-2.92-.13-4.39.04-.38-.06-1.02.47-1.06.22,0,.41.18.41.41-.2,1.41.06,2.76.09,4.13.02,2.12-.49,4.15-1.09,6.16.35.31-.24,1.57-.27,2.05-.29,1.49-.33,3.02-.3,4.54-.11.87,1.12,11.64-.91,9.69Z"/>
          <path class="cls-2" d="M55.45,48.66s-.03.02-.05.03c-.14.03-.28.07-.42.11-.05.01-.11.03-.16.06.21-.1.41-.16.62-.19Z"/>
          <path class="cls-2" d="M60.58,46.58s0,.04.02.06c-.14-.1-.29-.19-.45-.26.06.02.12.04.18.07.09.03.18.08.26.13h0Z"/>
          <path class="cls-2" d="M58.4,49.64s-.01,0-.02-.01c0,0,.02,0,.02.01,0,0,0,0,0,0Z"/>
          <path class="cls-2" d="M56.22,49.41s-.03.02-.04.02c0,0,0,0,0,0,.01,0,.03-.02.04-.02Z"/>
          <path class="cls-2" d="M62.13,46.41s-.01-.02-.02-.03c0,.02.02.03.03.05,0,0,0-.01,0-.02Z"/>
          <path class="cls-6" d="M71.66,68.18s-.01.04-.02.05c-.34.56-.81,1.1-1.29,1.57-.13.16-.38.33-.55.52,0,0,0,0,0,0-.72.62-1.41,1.26-2.19,1.82-3.8,2.68-8.32,1.64-11.89-.91-.69-.4-1.66-1.37-2.5-1.5-.09-.13-.25-.19-.41-.18,0-.33.05-.66.13-.98.03,0,.06,0,.09,0,.58.22,1.05.54,1.65.81,1.77.83,3.74,1.19,5.69,1.29,2.75.18,5.63-.54,7.98-2.03.3.04.66-.31.92-.45.43-.29.85-.62,1.18-1.02.08,0,.15-.02.21-.06.38.32.72.68,1.01,1.07Z"/>
          <path class="cls-3" d="M88.63,46.41c-.48-.11-1-.1-1.47,0,.02-.64-.15-1.28-.48-1.83-.84-1.56-2.3-1.87-3.86-1.87-.54,0-1.1.04-1.65.08-.68.05-1.34.1-1.95.07-3.12-.08-3.36-3.24-5.69-4.59-2.08-1.22-4.18.33-6.09,1.11-1.27.53-2.26.14-3.21-.24-1.3-.53-2.52-1.05-4.25.76-.12.13-.23.26-.34.4,0,0,0,0,0,0,0,0,0,.01-.01.02t0,0s-.03.05-.05.08c-.06.11-.12.21-.19.32-.02.03-.04.07-.06.1,0,0,0,.02-.01.02,0,0,0,.02-.01.02h0c-.04.08-.09.15-.14.23-.01.02-.03.04-.04.06-.04.06-.09.12-.14.18-.02.03-.05.07-.07.1-.01.02-.02.03-.04.05,0,0,0,.01-.01.02-.02.03-.04.06-.06.09-.02.04-.05.07-.07.11,0,0,0,.01-.01.02,0,0,0,0,0,0-.06.1-.12.2-.19.3-.02.04-.05.07-.07.11-.01.03-.02.05-.03.08,0,.03-.02.05-.03.08,0,.02-.01.04-.02.05,0,.02-.02.05-.03.07-.01.03-.03.07-.04.1-.02.06-.05.12-.08.18,0,.02-.02.04-.03.06,0,0,0,0,0,0,0,0,0,0,0,0h0s0,0,0,0c0,0,0,0,0,0,0,0,0,0,0,0,0,0,0,0,0,0h0s-.02.04-.03.06c-.05.09-.1.17-.15.25,0,0-.01.02-.02.02,0,0,0,0,0,.01,0,0,0,0,0,0h0s0,0,0,.01c0,0,0,.01-.01.02-.02.03-.05.07-.07.1,0,0,0,0,0,0-.03.05-.07.1-.1.15,0,0,0,0,0,0,0,0,0,0,0,0,0,0,0,0,0,.01,0,0,0,0,0,0,0,0,0,0,0,.01,0,.01-.02.02-.02.03-.03.05-.06.1-.09.15,0,0,0,0,0,0-.02.03-.04.06-.05.09-.03.06-.07.12-.11.18,0,.01-.01.02-.02.03,0,.01-.02.03-.03.04,0,0,0,.01-.01.02-.01.02-.03.04-.04.07-.05.08-.11.16-.17.24-.06.08-.12.15-.18.22-.06.06-.12.13-.18.19-.04.04-.07.07-.11.11-.07.06-.15.12-.22.19,0,0-.01,0-.02.01,0,0,0,0,0,0-.02.02-.04.03-.05.05,0,0-.01.01-.02.02-.01.01-.03.02-.04.04-.04.04-.08.08-.12.11-.06.05-.12.1-.18.14,0,0,.02-.01.02-.02-.07.05-.12.1-.19.15-.1.08-.21.15-.32.21-.12.07-.23.16-.35.21-.1.04-.2.07-.3.1-.06.01-.11.03-.17.03-.28.11-.56.19-.85.24,0,0,0-.01,0-.02-.01,0-.02,0-.03,0-.04,0-.08.01-.13.02,0,0,0,0,0,0,0,0,0,0,0,0,0,0,0,0,0,0,0,0,0,0,0,0-.05,0-.09,0-.14,0,.02,0,.04,0,.06,0-.06,0-.11.02-.17.02-.02,0-.04,0-.06,0,0,0-.02,0-.02,0-.02,0-.04,0-.06,0-.04,0-.09,0-.13,0-.07,0-.14-.01-.21-.03h0c-.25-.03-.51-.1-.76-.21-.12-.02-.23-.08-.33-.14-.05-.02-.11-.05-.16-.07-.07-.03-.14-.07-.21-.1,0,0-.01,0-.02-.01-.03-.02-.06-.03-.09-.05-.04-.02-.08-.04-.11-.06-.03-.02-.05-.03-.08-.05-.03-.02-.06-.03-.08-.05-.03-.02-.05-.03-.08-.05-.01,0-.03-.02-.04-.03-.03-.02-.05-.04-.08-.06-.01-.01-.02-.02-.04-.03-.07-.06-.13-.14-.18-.22-.16-.14-.31-.28-.46-.43-.1-.08-.19-.17-.28-.26-.13-.14-.24-.3-.34-.46-.02-.03-.04-.07-.07-.1-.02-.03-.04-.07-.06-.1,0,0,0,0,0,.01,0,0-.01-.02-.02-.02,0-.01-.02-.03-.03-.04-.02-.02-.03-.04-.05-.06-.03-.03-.05-.07-.08-.1-.05-.07-.11-.14-.16-.21-.05-.07-.1-.13-.15-.2-.07-.1-.12-.21-.17-.32-.04-.09-.07-.19-.1-.28,0,0,0,0,0-.01,0-.03-.02-.06-.03-.09-.01-.04-.03-.08-.04-.12-.01-.04-.03-.08-.04-.12,0,0,0-.01,0-.02,0,0,0-.01,0-.02,0-.01,0-.03-.01-.04-.03-.1-.06-.2-.09-.3,0,0,0,0,0,0,0,0,0,0,0,0,0,0,0,0,0,0h0s0,0,0,0c0,0,0,0,0,0,0,0,0,0,0,0,0,0,0,0,0,0,0,0,0,0,0,0,0,0,0,0,0,0,0,0,0,0,0,0,0,0,0,0,0,0h0s0,0,0-.01c0,0,0,0,0,0,0-.02-.01-.05-.02-.07-.05-.18-.08-.36-.1-.55-.02-.18-.02-.36-.02-.54,0-.06,0-.11,0-.17,0-.15.04-.3.08-.45.01-.31.04-.61.1-.91.04-.19.08-.38.14-.56,0-.09.03-.17.05-.25.03-.11.07-.22.11-.32.02-.04.04-.09.06-.14.02-.07.04-.14.06-.21,0,0,0,.02,0,.03,0-.02.01-.04.02-.06,0,0,0,0,0,0,.07-.15.14-.29.2-.43,1.1-2.37,3-4.53,5.52-5.46-1.77,1.72-2.57,3.35-.74,5.41.41.39.82.96,1.34,1.25.03.05.07.09.12.12.11.07.25.08.42.05.02,0,.04,0,.06,0,.29,0,.46-.11.53-.23.7-.36,1.53-1.01,1.91-1.2.73-.47,1.49-.92,2.27-1.31,1.53-.77,3.21-1.16,4.9-1.4,3.55-.56,7.22-.21,10.6,1.03,2.33.78,4.63,1.76,6.48,3.42,2.08,1.97,4.64,4.72,5.94,7.56Z"/>
          <path class="cls-3" d="M89.31,48.4c.13.66.22,1.32.27,1.98-.3-.31-.61-.58-.73-.7-.69-.63-1.55-1.12-2.47-1.34.31-.31.52-.69.64-1.1h.02c.19-.03.38-.08.58-.08.46-.02.96-.03,1.35.23.02.01.04.02.06.03.11.33.2.65.27.98Z"/>
          <path class="cls-3" d="M89.63,51.65c0,1.33-.11,2.66-.28,3.99-.07-.19-.14-.37-.21-.56-.46-1.13-1.27-2.1-2.3-2.75-.85-.73-2.83-.64-2.33-2.15.2-.57.67-.92,1.14-1.25.04.06.1.11.18.13,1.72.25,2.71,1.45,3.79,2.59Z"/>
          <path class="cls-4" d="M53.92,49.19c-.33-.08-.41-.58-.1-.74.18-.09.36-.18.53-.27.71-.33,1.52-.45,2.3-.46.72-.01,1.45.07,2.15.27.4.08.84.18,1.24.07.24-.15.44-.46.19-.7-.3,0-.57-.23-.89-.21-.35-.04-.87.16-.96-.33-.04-.45.39-.49.73-.48.2,0,.4.01.59.04.2-.07.42-.02.61.07.67.25,1.08,1.08.71,1.72-.57,1.1-1.89.74-2.85.51-.82-.15-1.67-.2-2.49-.06-.24.05-.48.1-.71.17-.37.1-.67.45-1.06.4Z"/>
          <path class="cls-1" d="M55.61,54.72c.39-.02.8-.02,1.18.07-.75-.4-1.7-.65-2.62-.65-.7,0-1.38.14-1.95.47-.52.44-1.13,1-1.25,1.7,0,.51.79.53.81.02.21-.35.47-.68.78-.95.87-.6,2.02-.56,3.05-.65ZM56.58,49.21s.07,0,.11-.01c-.05,0-.1,0-.14,0,0,0,0,0,0,0,.01,0,.02,0,.03.01ZM61.04,47.92c0-.14.03-.28.06-.42-.04-.35-.18-.69-.48-.93-.02-.02-.04-.05-.05-.07,0,.03,0,.06,0,.08-.08-.05-.17-.1-.26-.13-.06-.03-.12-.05-.18-.07-.19-.09-.39-.14-.59-.17-1.55-.23-3.11.43-4.45,1.15-.55.32-1.08.69-1.61,1.05-.49.22-1.48,1.04-.62,1.42.5.09.89-.34,1.29-.59.13-.09.26-.18.38-.25,0,0,.02,0,.02-.01,0,0,0,0,0,0,.06-.04.13-.08.19-.11.62-.39,1.38-.56,2.1-.49,1.03.12,2.06.34,3.11.29.55.02.88-.33,1.07-.77ZM63.82,55.16c.04-.5.58-2.03-.21-2.09-.41,0-.42.43-.42.74-.02.35-.07.7-.14,1.05-.4,2.03-1.84,3.66-3.31,5.04-.56.51-1.16,1.04-1.39,1.78-.4,1.22.29,2.7,1.51,3.12.27.1.59.01.8-.18-.08.03-.18.05-.28.06-.54.01-.87-.56-1.11-.97-.53-1.02-.19-2.26.72-2.93,1.67-1.53,3.33-3.34,3.82-5.61ZM64.41,75.99c-.07,0-.16.02-.24.03-1.67.06-3.38-.26-4.93-.89-.22,0-.41.18-.41.41.06.61,1.54.84,2.07.94,1.18.12,2.44.07,3.5-.49ZM72.79,71.87c.78-1.71.22-3.81-1.22-5.01-.41-.34-1.77-1.81-2.03-.71,0,.23.17.33.34.43-.32.42-.76.73-1.2,1.03-.13.09-.3.17-.45.28-3.62,1.79-6.63,2.68-11.31,1.45-.79-.2-1.52-.5-2.26-.86-.41-.15-.93-.58-1.42-.7.11-.2.23-.4.39-.59,0,0,0,0,0,0,.24-.38-.29-.81-.61-.51-1.35,1.45-1.04,3.74.16,5.19-.14-.45-.26-.94-.32-1.43,1.1.36,1.95,1.22,2.94,1.81,1.89,1.21,4.03,2.15,6.3,2.28,2.71.17,5.4-.99,7.35-2.84.2-.19.4-.38.59-.58h0c.09,0,.18-.05.25-.12.66-.65,1.34-1.29,1.86-2.06.47.89.71,1.89.64,2.92ZM75.29,58.46c.69-.08.37-1.04.17-1.46-.92-1.64-3.57-1.85-5.25-1.59-.74.12-1.41.45-2.08.74.73-.06,1.46-.15,2.2-.15.23,0,.46,0,.69.03,1.5.17,3.9.23,3.92,2.21.07.12.21.2.35.2ZM76.68,50.08c1.6.51-.14-2.55-.57-2.95-1.03-1.32-2.55-1.98-4.1-2.42-1.1-.44-3.34-.19-3.01,1.42.4,1.13,1.84,1.05,2.82.95.09,0,.18,0,.27,0,.69,0,1.39.14,2.05.37.91.27,1.67.92,2.11,1.76.17.28.2.65.44.88ZM84.64,62.83c.21.49.96.16.75-.32-.21-.45-.47-.9-.83-1.25-.19-.22-.58-.49-.88-.49-.19,0-.34.11-.38.4-.01.3.28.36.48.49.4.29.65.73.86,1.17ZM85.55,61.49c.26.46.97.04.7-.41-.46-.92-1.13-1.71-1.91-2.39-.07-.13-.21-.2-.36-.2-.12,0-.24.05-.32.16-.21.27.01.58.25.75.66.6,1.24,1.28,1.63,2.1ZM87,60.61c.32.15.69-.21.53-.53-.24-.49-.5-.97-.77-1.46-.38-.68-.81-1.35-1.4-1.88-.22-.24-.79-.65-1.16-.65-.21,0-.36.13-.35.5.03.13.15.25.28.28.24.08.44.25.63.42.89.8,1.39,1.92,1.95,2.96.06.13.13.29.28.35ZM87.97,59.45c.2.49.95.16.75-.32-.14-.34-.27-.69-.41-1.04-.78-1.75-2.03-4.42-4.1-4.76-.4.05-.47.64-.1.78.19.04.37.11.54.2,1.77,1.12,2.57,3.28,3.32,5.14ZM89.13,57.29c-.2,1.45-.42,2.89-.55,4.33-.02.24-.03.48-.05.72-.36-.1-.86.32-1.16.48-.27.23-.69.37-.79.73-.03.22.13.43.35.46.52-.06.87-.62,1.37-.79.05-.02.11-.04.16-.07-.31,3.05-.92,6.06-1.62,9.05-.58.3-1.45.02-1.92-.47-.37-.21-.48-1.03-1.02-.66-.45.47.22,1.17.92,1.6-2.5,4.56-4.67,5.26-8.95,7.85,1.57-.26,3-.82,4.29-1.6,0,.01,0,.02-.01.03-.05.13-.11.25-.16.38-.01.03-.02.05-.02.08-.06.13-.12.26-.18.39-.04.08-.07.16-.11.24-.05.1-.11.2-.12.31-.03.25.17.44.31.62.11.14.21.28.32.41.09.11.18.23.27.34.03.11.06.22.09.33.03.11.06.23.09.34.07.24.13.48.2.72,0,.02.01.04.02.05-2.08,2.27-4.22,4.49-6.52,6.54-.23.11-.46.3-.66.38-.37.18-.8.36-1.24.51-1.79.54-3.7,1-5.6,1-.58,0-1.17-.04-1.75-.14-1.47-.21-2.92-.59-4.17-1.42-.06-.05-.13-.09-.2-.11-1.2-1.33-2.42-2.65-3.43-4.15-.37-.59-.74-1.19-1.1-1.78.41.12.83.24,1.24.35.1.04.2.09.3.14.02,0,.03.02.05.03.07.05.14.1.21.14.49.33.98.66,1.47.97.46.29.91.58,1.37.86t0,0s0,0,0,0c-.16-.15-.32-.3-.49-.45.07.04.14.08.21.12-.46-.31-1.33-1.77-.65-2.15,1.64.7,3.41,1.12,5.26,1.19,1.64.16,3.29-.39,4.62-1.32-2.89.8-6,.66-8.83-.32-3.12-1.11-5.77-3.33-7.68-6.02-1.31-1.88-2.07-4.15-2.8-6.34-2.27-5.39-2.27-11.53-.34-17.03.68-1.87,1.54-3.67,2.53-5.4.31-.55.59-1.08.87-1.64h0c2.34,0,4.39-2.14,5.38-4.11.16-.31.32-.62.46-.93h0c.11-.16.21-.33.31-.49,1.91-2.86,2.9-2.26,4.35-1.66.66.27,1.41.55,2.39.49,2.22-.14,4.03-2.41,6.32-1.65,2.59,1.2,2.59,4.46,5.98,4.82.72.1,1.57.04,2.44-.02,2.2-.16,4.51-.32,5.14,2.22.3,1.16-.47,2.12-1.43,2.66-1.1.7-1.84,2.53-.62,3.47.72.47,1.61.63,2.3,1.16,1.74,1.17,1.81,2.57,2.57,4.18Z"/>
          <path class="cls-5" d="M104.67,102.61s0,0,0,0c-.02.05-.03.11-.04.16-.11.31-.25.62-.44.89-1.35,1.97-3.62,2.91-5.73,3.84-3.79,1.87-8.04,1.92-12.17,2.29-3.77.18-7.58.28-11.39.21.38-2.91.46-5.88.66-8.83.28-3.08.39-6.48,1.65-9.37,1.95-1.54,3.73-3.29,5.19-5.33,4.97-6.95,5.81-8.01,7.52-16.47.58-2.6,1.33-5.16,1.87-7.76.61-3.22.82-6.51.65-9.77-.03-1.55-.34-3.08-.63-4.6-.4-1.96-.86-3.96-1.95-5.68-3.04-4.19-7.29-7.46-11.99-9.59-2.28-.83-4.69-1.51-7.14-1.45-3.07.3-6.14.75-9.13,1.49-1.78.48-3.25,1.65-4.67,2.77-.63.54-1.39.99-1.92,1.62-.11-.15-.22-.29-.33-.43.07-.04.14-.11.17-.21,1.66-1.99,3.68-3.69,6.03-4.81,2.1-1,4.19-2.04,6.36-2.88,2.19-.63,4.44-1.08,6.69-1.36,5.66-1.12,11.58.88,15.9,4.59,1.9,1.69,3.59,3.61,5.18,5.6.99,1.3,2.01,2.61,2.77,4.06.76,1.52,1.2,3.17,1.59,4.82.95,4.5,2.28,8.99,2.26,13.63-.09,7.56-2.45,15.3-7.61,20.97-.9,1-1.83,1.97-2.78,2.91-.13.04-.23.14-.27.27-1.66,1.63-3.39,3.2-5.14,4.73-1.86,1.5-3.77,3.27-4.54,5.62,2-2.41,4.42-4.46,6.78-6.53,1.16-1.04,2.3-2.09,3.42-3.18,1.86.81,3.82,1.44,5.31,2.9,1.95,1.73,3.31,4.04,4.41,6.38.79,1.65,1.53,3.32,2.28,4.99.44,1.15.91,2.28,1.17,3.51Z"/>
          <path class="cls-5" d="M91.7,54.57c.15,5.62-1.6,10.98-2.81,16.4-.62,2.61-1.06,5.31-2.31,7.71-.78,1.6-1.86,3.02-2.84,4.5-1.35,2.02-2.74,3.98-4.44,5.74-.17.18-.36.37-.55.55,0-.06,0-.12,0-.17.03-.11.02-.23-.03-.33-.05-.3-.15-.56-.3-.7-.16-.18-.46-.43-.76-.56.8-.82,1.59-1.66,2.4-2.48,1.61-1.7,3.28-3.36,4.47-5.41,1.36-2.36,2.69-4.79,3.12-7.51.38-1.85.89-3.67,1.18-5.53.34-2.14.48-4.31.74-6.46.43-3.83,1.33-7.7.66-11.55-.39-2.71-2.05-5.01-3.75-7.08-1.85-2.32-4-4.49-6.73-5.74-2.42-1.13-5.01-1.97-7.64-2.43-3.57-.43-7.31-.17-10.7,1.08-2.01.75-3.68,2.14-5.57,3.13-.07-.02-.14-.02-.2,0-.03-.03-.07-.07-.1-.1.13-.09.24-.22.36-.32,1.7-1.34,3.38-2.94,5.45-3.73,3.01-.88,6.18-1.26,9.29-1.62,4.03-.09,7.91,1.55,11.23,3.73,2.95,2.06,5.82,4.47,7.71,7.57,1.57,3.52,2.08,7.47,2.13,11.29Z"/>
          <path class="cls-5" d="M75.71,89.59c0,.28.06.55.21.78-.38.72-.71,1.43-1,2.14-3.42,2.51-7.19,5.16-8.08,8.48,2.08-2.78,4.82-5.02,7.59-7.13-1.21,3.77-1.27,7.53-1.39,12.01-.07,1.36-.29,2.71-.57,4.05-2.14-.09-4.28-.23-6.41-.47-1.54-.2-3.06-.47-4.56-.85-1.41-.38-2.75-.86-4.11-1.34.01-.46.03-.92.06-1.38.17-1.86.38-3.77.72-5.61.35-1.71.85-3.47.97-5.25.04-.47.04-.95.01-1.42,1.23,2.16,2.19,4.53,2.74,6.96.42-2.96-1.05-6.01-2.99-8.9-.22-1.12-.54-2.22-.89-3.3.02-.08.04-.16.06-.24.91,1.11,1.89,2.17,2.87,3.22,1.42,1.72,2.66,4.12,5.2,4.15,3.11.11,6.02-3,8.47-5,.08-.06.16-.11.22-.18.14-.11.27-.21.4-.31.17-.15.33-.3.5-.45Z"/>
          <path class="cls-5" d="M56.81,90.17c1.03,4.95-.84,10.01-1.53,14.94-.09.46-.16.93-.2,1.39-3.07-1.04-6.23-2.06-8.71-4.23-1.06-.96-2.08-2.23-2.11-3.71.06-.07.11-.16.11-.28.03-.82.2-1.62.34-2.43.08-.32.17-.77.23-1.12,0-.03,0-.07,0-.11.26-.82.5-1.63.76-2.45.58-1.67,1.5-3.24,2.49-4.72,1.03-1.44,2.37-2.96,4.16-3.38.16.25.32.5.48.75,1.28,1.81,2.67,3.55,3.98,5.34Z"/>
          <path class="cls-5" d="M56.56,86.14c-.57.04-.88.51-.96,1.08-.82-1.07-1.6-2.09-2.22-3.04-1.63-2.52-2.83-5.27-3.94-8.04-1.61-3.58-2.63-7.41-2.99-11.33-.24-4.24.82-8.47,2.04-12.52.62-1.72,1.34-3.4,2.25-4.99.16-.28.32-.56.49-.84.45.25.94.45,1.45.57-.12.25-.25.49-.38.74-2.13,3.62-3.76,7.58-4.21,11.79-.32,2.43-.16,4.88.23,7.31.35,1.94,1.13,3.74,1.76,5.61.48,1.76,1.23,3.43,2.2,4.96.45,1.5.97,2.99,1.72,4.37.82,1.46,1.65,2.92,2.57,4.33Z"/>
          <path class="cls-5" d="M50.54,46.02c-.06.11-.12.21-.17.29-.66,1.11-1.26,2.25-1.75,3.44-.63,1.36-1.09,2.77-1.48,4.21,0-.06,0-.11,0-.17-.01-.41,0-.82.05-1.23h0s0-.03,0-.05c.08-.79.22-1.6.41-2.39,0,0,0,0,0,0,0,0,0,0,0,0,0,0,0,0,0,0h0s0-.02,0-.03c0,0,0,0,0,0,0,0,0,0,0,0,0,0,0-.01,0-.02.02-.1.05-.2.07-.31.24-.95.53-1.89.87-2.81h0s0-.02,0-.03c.06-.17.14-.35.21-.53.2-.5.38-1.01.59-1.52.35.43.75.82,1.19,1.15Z"/>
        </g>
      </g>
    </g>
  </g>
</svg>